<?xml version="1.0" encoding="UTF-8"?>
<svg id="Layer_1" data-name="Layer 1" xmlns="http://www.w3.org/2000/svg" viewBox="0 0 678.81 684.8">
  <defs>
    <style>
      .cls-1 {
        fill: #ffff;
      }
    </style>
  </defs>
  <g>
    <path class="cls-1" d="m215.64,502.02c1.93-2.39,7.48-6.67,7.48-6.67l-4.22.21s-21.61,1.53-32.49,2.1c-1.62.08-3.46-.35-4.91-1.85-21.57-22.21-43.19-44.38-64.82-66.53-5.38-5.51-11.63-10.13-11.79-19.16-.22-11.78,1.01-22.98,7.32-33.08,1.36-2.18,2.72-4.37,4.28-6.4,1.84-2.4,2.79-4.8,0-8.17,6.99,1.01,10.75-2.27,14.15-6.7,4.58-5.95,9.87-11.27,15.29-16.49,2.3-2.21,5.44-4.14,5.49-8.06,0-.51.31-1.41.6-1.46,9.4-1.4,12.35-10.44,18.56-15.59,6.5-5.39,18.17-17.67,18.17-17.67l31.2-30.55s83.01-84.56,95.24-96.78c16.18-16.16,48.59-48.43,48.59-48.43,0,0,17.89-18.43,32.21-33.09,14.32-14.66,13.92-9.2,22.73-8.62,5.01.33,31.63,16.4,31.63,16.4,0,0,23.36,13.65,26.42,13.86h0s-31.98-31.45-31.98-31.45c-.96-.19-11.56-11.32-16.45-16.12,0,0-30.77-29.85-44.34-43.14-.58-.58-1.16-1.15-1.74-1.73C376.47,11.24,370.66,5.62,364.85,0c0,0,0,0,0,0h0s5.89,18.91,5.89,18.91c2.08,17.13-20.22,42.37-20.22,42.37l-6.88,6.2s-16.75,17.15-24.84,25.98c-4.09,4.47-10.97,7.66-9.43,15.87.55,2.91-4.45-.13-4.05,3.2-2.5-3.07-4.03-.76-5.66.92-7.16,7.36-14.38,14.67-21.46,22.11-2.82,2.97-7.6,4.89-5.97,10.54.25.86-.69,1.72-1.38,1.53-6.43-1.77-8.41,4.1-11.46,7.11-15.59,15.38-89.35,91.3-104.61,107.02-7.34,7.57-15.17,14.63-22.25,22.48-6.55,7.26-13.71,13.97-20.74,20.79-9.03,8.76-18.65,16.97-27.17,26.2-6.51,7.05-13.07,14.04-20.22,20.37-11.97,10.59-26.22,15.67-36.65,17.95l-27.77,2.36c7.33,6.39,14.32,13.13,20.82,20.37,7.52,7.33,15.03,14.66,22.55,21.99,0,0,0,0,0,0,4.06,3.95,8.12,7.9,12.18,11.85,0,0,0,0,0,0,2.88,2.82,5.76,5.65,8.65,8.47,0,0,0,0,0,0,3.19,3.11,6.38,6.22,9.57,9.32,12.73,12.42,25.45,24.83,38.18,37.25,13.93,13.42,36.77,34.92,44.19,42.7,7.42,7.77,50.61-10.83,59.5-21.85Z"/>
    <path class="cls-1" d="m522.67,523.87c7.42-7.77,30.25-29.28,44.19-42.7,12.73-12.42,25.45-24.83,38.18-37.25,3.19-3.11,6.38-6.22,9.57-9.32,0,0,0,0,0,0,2.88-2.82,5.76-5.65,8.65-8.47,0,0,0,0,0,0,4.06-3.95,8.12-7.9,12.18-11.85,0,0,0,0,0,0,7.52-7.33,15.03-14.66,22.55-21.99,6.5-7.24,13.49-13.98,20.82-20.37l-27.77-2.36c-10.43-2.28-24.67-7.35-36.65-17.95-7.15-6.33-13.71-13.32-20.22-20.37-8.52-9.23-18.13-17.44-27.17-26.2-7.03-6.82-14.19-13.53-20.74-20.79-7.08-7.85-14.91-14.92-22.25-22.48-15.26-15.72-89.02-91.63-104.61-107.02-3.05-3.01-5.03-8.87-11.46-7.11-.68.19-1.63-.67-1.38-1.53,1.64-5.64-3.15-7.57-5.97-10.54-7.08-7.44-14.3-14.75-21.46-22.11-1.63-1.68-3.16-3.99-5.66-.92.4-3.32-4.6-.29-4.05-3.2,1.55-8.2-5.33-11.4-9.43-15.87-8.09-8.82-24.84-25.98-24.84-25.98l-6.88-6.2s-22.3-25.24-20.22-42.37l5.89-18.91h0s0,0,0,0c-5.81,5.62-11.61,11.24-17.42,16.86-.58.58-1.16,1.15-1.74,1.73-13.57,13.29-44.34,43.14-44.34,43.14-4.9,4.8-15.49,15.93-16.45,16.12,0,0-31.98,31.45-31.98,31.45h0c3.06-.21,26.42-13.85,26.42-13.85,0,0,26.62-16.07,31.63-16.4,8.81-.58,8.41-6.05,22.73,8.62,14.32,14.66,32.21,33.09,32.21,33.09,0,0,32.42,32.27,48.59,48.43,12.23,12.22,95.24,96.78,95.24,96.78l31.2,30.55s11.67,12.28,18.17,17.67c6.21,5.15,9.17,14.19,18.56,15.59.28.04.59.94.6,1.46.05,3.92,3.2,5.85,5.49,8.06,5.41,5.22,10.71,10.54,15.29,16.49,3.4,4.43,7.17,7.71,14.15,6.7-2.78,3.37-1.83,5.77,0,8.17,1.56,2.03,2.92,4.22,4.28,6.4,6.3,10.1,7.53,21.3,7.32,33.08-.17,9.02-6.41,13.64-11.79,19.16-21.63,22.15-43.25,44.32-64.82,66.53-1.46,1.5-3.3,1.93-4.91,1.85-10.87-.57-32.49-2.1-32.49-2.1l-4.22-.21s5.55,4.28,7.48,6.67c8.89,11.01,52.09,29.62,59.5,21.85Z"/>
    <path class="cls-1" d="m463.17,182.78c-1.93,2.39-7.48,6.67-7.48,6.67l4.22-.21s21.61-1.53,32.49-2.1c1.62-.08,3.46.35,4.91,1.85,21.57,22.21,43.19,44.38,64.82,66.53,5.38,5.51,11.63,10.13,11.79,19.16.22,11.78-1.01,22.98-7.32,33.08-1.36,2.18-2.72,4.37-4.28,6.4-1.84,2.4-2.79,4.8,0,8.17-6.99-1.01-10.75,2.27-14.15,6.7-4.58,5.95-9.87,11.27-15.29,16.49-2.3,2.21-5.44,4.14-5.49,8.06,0,.51-.31,1.41-.6,1.46-9.4,1.4-12.35,10.44-18.56,15.59-6.5,5.39-18.17,17.67-18.17,17.67l-31.2,30.55s-83.01,84.56-95.24,96.78c-16.18,16.16-48.59,48.43-48.59,48.43,0,0-17.89,18.43-32.21,33.09-14.32,14.66-13.92,9.2-22.73,8.62-5.01-.33-31.63-16.4-31.63-16.4,0,0-23.36-13.65-26.42-13.86h0s31.98,31.45,31.98,31.45c.96.19,11.56,11.32,16.45,16.12,0,0,30.77,29.85,44.34,43.14.58.58,1.16,1.15,1.74,1.73,5.81,5.62,11.61,11.24,17.42,16.86,0,0,0,0,0,0h0s-5.89-18.91-5.89-18.91c-2.08-17.13,20.22-42.37,20.22-42.37l6.88-6.2s16.75-17.15,24.84-25.98c4.09-4.47,10.97-7.66,9.43-15.87-.55-2.91,4.45.13,4.05-3.2,2.5,3.07,4.03.76,5.66-.92,7.16-7.36,14.38-14.67,21.46-22.11,2.82-2.97,7.6-4.89,5.97-10.54-.25-.86.69-1.72,1.38-1.53,6.43,1.77,8.41-4.1,11.46-7.11,15.59-15.38,89.35-91.3,104.61-107.02,7.34-7.57,15.17-14.63,22.25-22.48,6.55-7.26,13.71-13.97,20.74-20.79,9.03-8.76,18.65-16.97,27.17-26.2,6.51-7.05,13.07-14.04,20.22-20.37,11.97-10.59,26.22-15.67,36.65-17.95l27.77-2.36c-7.33-6.39-14.32-13.13-20.82-20.37-7.52-7.33-15.03-14.66-22.55-21.99,0,0,0,0,0,0-4.06-3.95-8.12-7.9-12.18-11.85,0,0,0,0,0,0-2.88-2.82-5.76-5.65-8.65-8.47,0,0,0,0,0,0-3.19-3.11-6.38-6.22-9.57-9.32-12.73-12.42-25.45-24.83-38.18-37.25-13.93-13.42-36.77-34.92-44.19-42.7-7.42-7.77-50.61,10.83-59.5,21.85Z"/>
    <path class="cls-1" d="m156.14,160.93c-7.42,7.77-30.25,29.28-44.19,42.7-12.73,12.42-25.45,24.83-38.18,37.25-3.19,3.11-6.38,6.22-9.57,9.32,0,0,0,0,0,0-2.88,2.82-5.76,5.65-8.65,8.47,0,0,0,0,0,0-4.06,3.95-8.12,7.9-12.18,11.85,0,0,0,0,0,0-7.52,7.33-15.03,14.66-22.55,21.99-6.5,7.24-13.49,13.98-20.82,20.37l27.77,2.36c10.43,2.28,24.67,7.35,36.65,17.95,7.15,6.33,13.71,13.32,20.22,20.37,8.52,9.23,18.13,17.44,27.17,26.2,7.03,6.82,14.19,13.53,20.74,20.79,7.08,7.85,14.91,14.92,22.25,22.48,15.26,15.72,89.02,91.63,104.61,107.02,3.05,3.01,5.03,8.87,11.46,7.11.68-.19,1.63.67,1.38,1.53-1.64,5.64,3.15,7.57,5.97,10.54,7.08,7.44,14.3,14.75,21.46,22.11,1.63,1.68,3.16,3.99,5.66.92-.4,3.32,4.6.29,4.05,3.2-1.55,8.2,5.33,11.4,9.43,15.87,8.09,8.82,24.84,25.98,24.84,25.98l6.88,6.2s22.3,25.24,20.22,42.37l-5.89,18.91h0s0,0,0,0c5.81-5.62,11.61-11.24,17.42-16.86.58-.58,1.16-1.15,1.74-1.73,13.57-13.29,44.34-43.14,44.34-43.14,4.9-4.8,15.49-15.93,16.45-16.12,0,0,31.98-31.45,31.98-31.45h0c-3.06.21-26.42,13.85-26.42,13.85,0,0-26.62,16.07-31.63,16.4-8.81.58-8.41,6.05-22.73-8.62-14.32-14.66-32.21-33.09-32.21-33.09,0,0-32.42-32.27-48.59-48.43-12.23-12.22-95.24-96.78-95.24-96.78l-31.2-30.55s-11.67-12.28-18.17-17.67c-6.21-5.15-9.17-14.19-18.56-15.59-.28-.04-.59-.94-.6-1.46-.05-3.92-3.2-5.85-5.49-8.06-5.41-5.22-10.71-10.54-15.29-16.49-3.4-4.43-7.17-7.71-14.15-6.7,2.78-3.37,1.83-5.77,0-8.17-1.56-2.03-2.92-4.22-4.28-6.4-6.3-10.1-7.53-21.3-7.32-33.08.17-9.02,6.41-13.64,11.79-19.16,21.63-22.15,43.25-44.32,64.82-66.53,1.46-1.5,3.3-1.93,4.91-1.85,10.87.57,32.49,2.1,32.49,2.1l4.22.21s-5.55-4.28-7.48-6.67c-8.89-11.01-52.09-29.62-59.5-21.85Z"/>
  </g>
</svg>