<?xml version="1.0" encoding="UTF-8"?>
<svg id="Layer_1" data-name="Layer 1" xmlns="http://www.w3.org/2000/svg" viewBox="0 0 678.81 684.8">
  <defs>
    <style>
      .cls-1 {
        fill: #000005;
      }
    </style>
  </defs>
  <g>
    <path class="cls-1" d="m215.64,502.02c1.93-2.39,7.48-6.67,7.48-6.67l-4.22.21s-21.61,1.53-32.49,2.1c-1.62.08-3.46-.35-4.91-1.85-21.57-22.21-43.19-44.38-64.82-66.53-5.38-5.51-11.63-10.13-11.79-19.16-.22-11.78,1.01-22.98,7.32-33.08,1.36-2.18,2.72-4.37,4.28-6.4,1.84-2.4,2.79-4.8,0-8.17,6.99,1.01,10.75-2.27,14.15-6.7,4.58-5.95,9.87-11.27,15.29-16.49,2.3-2.21,5.44-4.14,5.49-8.06,0-.51.31-1.41.6-1.46,9.4-1.4,12.35-10.44,18.56-15.59,6.5-5.39,18.17-17.67,18.17-17.67l31.2-30.55s83.01-84.56,95.24-96.78c16.18-16.16,48.59-48.43,48.59-48.43,0,0,17.89-18.43,32.21-33.09,14.32-14.66,13.92-9.2,22.73-8.62,5.01.33,31.63,16.4,31.63,16.4,0,0,23.36,13.65,26.42,13.86h0s-31.98-31.45-31.98-31.45c-.96-.19-11.56-11.32-16.45-16.12,0,0-30.77-29.85-44.34-43.14-.58-.58-1.16-1.15-1.74-1.73C376.47,11.24,370.66,5.62,364.85,0c0,0,0,0,0,0h0s5.89,18.91,5.89,18.91c2.08,17.13-20.22,42.37-20.22,42.37l-6.88,6.2s-16.75,17.15-24.84,25.98c-4.09,4.47-10.97,7.66-9.43,15.87.55,2.91-4.45-.13-4.05,3.2-2.5-3.07-4.03-.76-5.66.92-7.16,7.36-14.38,14.67-21.46,22.11-2.82,2.97-7.6,4.89-5.97,10.54.25.86-.69,1.72-1.38,1.53-6.43-1.77-8.41,4.1-11.46,7.11-15.59,15.38-89.35,91.3-104.61,107.02-7.34,7.57-15.17,14.63-22.25,22.48-6.55,7.26-13.71,13.97-20.74,20.79-9.03,8.76-18.65,16.97-27.17,26.2-6.51,7.05-13.07,14.04-20.22,20.37-11.97,10.59-26.22,15.67-36.65,17.95l-27.77,2.36c7.33,6.39,14.32,13.13,20.82,20.37,7.52,7.33,15.03,14.66,22.55,21.99,0,0,0,0,0,0,4.06,3.95,8.12,7.9,12.18,11.85,0,0,0,0,0,0,2.88,2.82,5.76,5.65,8.65,8.47,0,0,0,0,0,0,3.19,3.11,6.38,6.22,9.57,9.32,12.73,12.42,25.45,24.83,38.18,37.25,13.93,13.42,36.77,34.92,44.19,42.7,7.42,7.77,50.61-10.83,59.5-21.85Z"/>
    <path class="cls-1" d="m522.67,523.87c7.42-7.77,30.25-29.28,44.19-42.7,12.73-12.42,25.45-24.83,38.18-37.25,3.19-3.11,6.38-6.22,9.57-9.32,0,0,0,0,0,0,2.88-2.82,5.76-5.65,8.65-8.47,0,0,0,0,0,0,4.06-3.95,8.12-7.9,12.18-11.85,0,0,0,0,0,0,7.52-7.33,15.03-14.66,22.55-21.99,6.5-7.24,13.49-13.98,20.82-20.37l-27.77-2.36c-10.43-2.28-24.67-7.35-36.65-17.95-7.15-6.33-13.71-13.32-20.22-20.37-8.52-9.23-18.13-17.44-27.17-26.2-7.03-6.82-14.19-13.53-20.74-20.79-7.08-7.85-14.91-14.92-22.25-22.48-15.26-15.72-89.02-91.63-104.61-107.02-3.05-3.01-5.03-8.87-11.46-7.11-.68.19-1.63-.67-1.38-1.53,1.64-5.64-3.15-7.57-5.97-10.54-7.08-7.44-14.3-14.75-21.46-22.11-1.63-1.68-3.16-3.99-5.66-.92.4-3.32-4.6-.29-4.05-3.2,1.55-8.2-5.33-11.4-9.43-15.87-8.09-8.82-24.84-25.98-24.84-25.98l-6.88-6.2s-22.3-25.24-20.22-42.37l5.89-18.91h0s0,0,0,0c-5.81,5.62-11.61,11.24-17.42,16.86-.58.58-1.16,1.15-1.74,1.73-13.57,13.29-44.34,43.14-44.34,43.14-4.9,4.8-15.49,15.93-16.45,16.12,0,0-31.98,31.45-31.98,31.45h0c3.06-.21,26.42-13.85,26.42-13.85,0,0,26.62-16.07,31.63-16.4,8.81-.58,8.41-6.05,22.73,8.62,14.32,14.66,32.21,33.09,32.21,33.09,0,0,32.42,32.27,48.59,48.43,12.23,12.22,95.24,96.78,95.24,96.78l31.2,30.55s11.67,12.28,18.17,17.67c6.21,5.15,9.17,14.19,18.56,15.59.28.04.59.94.6,1.46.05,3.92,3.2,5.85,5.49,8.06,5.41,5.22,10.71,10.54,15.29,16.49,3.4,4.43,7.17,7.71,14.15,6.7-2.78,3.37-1.83,5.77,0,8.17,1.56,2.03,2.92,4.22,4.28,6.4,6.3,10.1,7.53,21.3,7.32,33.08-.17,9.02-6.41,13.64-11.79,19.16-21.63,22.15-43.25,44.32-64.82,66.53-1.46,1.5-3.3,1.93-4.91,1.85-10.87-.57-32.49-2.1-32.49-2.1l-4.22-.21s5.55,4.28,7.48,6.67c8.89,11.01,52.09,29.62,59.5,21.85Z"/>
    <path class="cls-1" d="m463.17,182.78c-1.93,2.39-7.48,6.67-7.48,6.67l4.22-.21s21.61-1.53,32.49-2.1c1.62-.08,3.46.35,4.91,1.85,21.57,22.21,43.19,44.38,64.82,66.53,5.38,5.51,11.63,10.13,11.79,19.16.22,11.78-1.01,22.98-7.32,33.08-1.36,2.18-2.72,4.37-4.28,6.4-1.84,2.4-2.79,4.8,0,8.17-6.99-1.01-10.75,2.27-14.15,6.7-4.58,5.95-9.87,11.27-15.29,16.49-2.3,2.21-5.44,4.14-5.49,8.06,0,.51-.31,1.41-.6,1.46-9.4,1.4-12.35,10.44-18.56,15.59-6.5,5.39-18.17,17.67-18.17,17.67l-31.2,30.55s-83.01,84.56-95.24,96.78c-16.18,16.16-48.59,48.43-48.59,48.43,0,0-17.89,18.43-32.21,33.09-14.32,14.66-13.92,9.2-22.73,8.62-5.01-.33-31.63-16.4-31.63-16.4,0,0-23.36-13.65-26.42-13.86h0s31.98,31.45,31.98,31.45c.96.19,11.56,11.32,16.45,16.12,0,0,30.77,29.85,44.34,43.14.58.58,1.16,1.15,1.74,1.73,5.81,5.62,11.61,11.24,17.42,16.86,0,0,0,0,0,0h0s-5.89-18.91-5.89-18.91c-2.08-17.13,20.22-42.37,20.22-42.37l6.88-6.2s16.75-17.15,24.84-25.98c4.09-4.47,10.97-7.66,9.43-15.87-.55-2.91,4.45.13,4.05-3.2,2.5,3.07,4.03.76,5.66-.92,7.16-7.36,14.38-14.67,21.46-22.11,2.82-2.97,7.6-4.89,5.97-10.54-.25-.86.69-1.72,1.38-1.53,6.43,1.77,8.41-4.1,11.46-7.11,15.59-15.38,89.35-91.3,104.61-107.02,7.34-7.57,15.17-14.63,22.25-22.48,6.55-7.26,13.71-13.97,20.74-20.79,9.03-8.76,18.65-16.97,27.17-26.2,6.51-7.05,13.07-14.04,20.22-20.37,11.97-10.59,26.22-15.67,36.65-17.95l27.77-2.36c-7.33-6.39-14.32-13.13-20.82-20.37-7.52-7.33-15.03-14.66-22.55-21.99,0,0,0,0,0,0-4.06-3.95-8.12-7.9-12.18-11.85,0,0,0,0,0,0-2.88-2.82-5.76-5.65-8.65-8.47,0,0,0,0,0,0-3.19-3.11-6.38-6.22-9.57-9.32-12.73-12.42-25.45-24.83-38.18-37.25-13.93-13.42-36.77-34.92-44.19-42.7-7.42-7.77-50.61,10.83-59.5,21.85Z"/>
    <path class="cls-1" d="m156.14,160.93c-7.42,7.77-30.25,29.28-44.19,42.7-12.73,12.42-25.45,24.83-38.18,37.25-3.19,3.11-6.38,6.22-9.57,9.32,0,0,0,0,0,0-2.88,2.82-5.76,5.65-8.65,8.47,0,0,0,0,0,0-4.06,3.95-8.12,7.9-12.18,11.85,0,0,0,0,0,0-7.52,7.33-15.03,14.66-22.55,21.99-6.5,7.24-13.49,13.98-20.82,20.37l27.77,2.36c10.43,2.28,24.67,7.35,36.65,17.95,7.15,6.33,13.71,13.32,20.22,20.37,8.52,9.23,18.13,17.44,27.17,26.2,7.03,6.82,14.19,13.53,20.74,20.79,7.08,7.85,14.91,14.92,22.25,22.48,15.26,15.72,89.02,91.63,104.61,107.02,3.05,3.01,5.03,8.87,11.46,7.11.68-.19,1.63.67,1.38,1.53-1.64,5.64,3.15,7.57,5.97,10.54,7.08,7.44,14.3,14.75,21.46,22.11,1.63,1.68,3.16,3.99,5.66.92-.4,3.32,4.6.29,4.05,3.2-1.55,8.2,5.33,11.4,9.43,15.87,8.09,8.82,24.84,25.98,24.84,25.98l6.88,6.2s22.3,25.24,20.22,42.37l-5.89,18.91h0s0,0,0,0c5.81-5.62,11.61-11.24,17.42-16.86.58-.58,1.16-1.15,1.74-1.73,13.57-13.29,44.34-43.14,44.34-43.14,4.9-4.8,15.49-15.93,16.45-16.12,0,0,31.98-31.45,31.98-31.45h0c-3.06.21-26.42,13.85-26.42,13.85,0,0-26.62,16.07-31.63,16.4-8.81.58-8.41,6.05-22.73-8.62-14.32-14.66-32.21-33.09-32.21-33.09,0,0-32.42-32.27-48.59-48.43-12.23-12.22-95.24-96.78-95.24-96.78l-31.2-30.55s-11.67-12.28-18.17-17.67c-6.21-5.15-9.17-14.19-18.56-15.59-.28-.04-.59-.94-.6-1.46-.05-3.92-3.2-5.85-5.49-8.06-5.41-5.22-10.71-10.54-15.29-16.49-3.4-4.43-7.17-7.71-14.15-6.7,2.78-3.37,1.83-5.77,0-8.17-1.56-2.03-2.92-4.22-4.28-6.4-6.3-10.1-7.53-21.3-7.32-33.08.17-9.02,6.41-13.64,11.79-19.16,21.63-22.15,43.25-44.32,64.82-66.53,1.46-1.5,3.3-1.93,4.91-1.85,10.87.57,32.49,2.1,32.49,2.1l4.22.21s-5.55-4.28-7.48-6.67c-8.89-11.01-52.09-29.62-59.5-21.85Z"/>
  </g>
  <g>
    <path class="cls-1" d="m284.49,415.58c.89-1.1,3.43-3.06,3.43-3.06l-1.93.1s-9.91.7-14.89.96c-.74.04-1.58-.16-2.25-.85-9.89-10.18-19.8-20.34-29.71-30.5-2.47-2.53-5.33-4.65-5.41-8.78-.1-5.4.47-10.54,3.35-15.16.62-1,1.25-2,1.96-2.93.84-1.1,1.28-2.2,0-3.74,3.2.46,4.93-1.04,6.49-3.07,2.1-2.73,4.53-5.16,7.01-7.56,1.05-1.01,2.5-1.9,2.52-3.7,0-.23.14-.65.27-.67,4.31-.64,5.66-4.78,8.51-7.15,2.98-2.47,8.33-8.1,8.33-8.1l14.3-14s38.05-38.76,43.65-44.36c7.42-7.41,22.27-22.2,22.27-22.2,0,0,8.2-8.45,14.76-15.17,6.56-6.72,6.38-4.22,10.42-3.95,2.3.15,14.5,7.52,14.5,7.52,0,0,10.71,6.25,12.11,6.35h0s-14.66-14.42-14.66-14.42c-.44-.09-5.3-5.19-7.54-7.39,0,0-14.1-13.68-20.32-19.77-.27-.26-.53-.53-.8-.79-2.66-2.58-5.32-5.15-7.98-7.73,0,0,0,0,0,0h0s2.7,8.67,2.7,8.67c.95,7.85-9.27,19.42-9.27,19.42l-3.15,2.84s-7.68,7.86-11.38,11.91c-1.88,2.05-5.03,3.51-4.32,7.27.25,1.33-2.04-.06-1.86,1.46-1.15-1.41-1.85-.35-2.6.42-3.28,3.37-6.59,6.72-9.84,10.14-1.29,1.36-3.48,2.24-2.73,4.83.11.39-.32.79-.63.7-2.95-.81-3.86,1.88-5.25,3.26-7.15,7.05-40.96,41.85-47.95,49.05-3.37,3.47-6.95,6.71-10.2,10.31-3,3.33-6.28,6.41-9.51,9.53-4.14,4.02-8.55,7.78-12.45,12.01-2.98,3.23-5.99,6.44-9.27,9.34-5.49,4.86-12.02,7.18-16.8,8.23l-12.73,1.08c3.36,2.93,6.56,6.02,9.54,9.34,3.45,3.36,6.89,6.72,10.34,10.08,0,0,0,0,0,0,1.86,1.81,3.72,3.62,5.58,5.43,0,0,0,0,0,0,1.32,1.29,2.64,2.59,3.96,3.88,0,0,0,0,0,0,1.46,1.42,2.92,2.85,4.39,4.27,5.83,5.69,11.67,11.38,17.5,17.07,6.39,6.15,16.85,16.01,20.25,19.57,3.4,3.56,23.2-4.97,27.28-10.01Z"/>
    <path class="cls-1" d="m425.22,425.59c3.4-3.56,13.87-13.42,20.25-19.57,5.83-5.69,11.67-11.38,17.5-17.07,1.46-1.42,2.92-2.85,4.39-4.27,0,0,0,0,0,0,1.32-1.29,2.64-2.59,3.96-3.88,0,0,0,0,0,0,1.86-1.81,3.72-3.62,5.58-5.43,0,0,0,0,0,0,3.45-3.36,6.89-6.72,10.34-10.08,2.98-3.32,6.18-6.41,9.54-9.34l-12.73-1.08c-4.78-1.04-11.31-3.37-16.8-8.23-3.28-2.9-6.28-6.1-9.27-9.34-3.9-4.23-8.31-7.99-12.45-12.01-3.22-3.12-6.5-6.2-9.51-9.53-3.25-3.6-6.83-6.84-10.2-10.31-6.99-7.21-40.8-42-47.95-49.05-1.4-1.38-2.31-4.07-5.25-3.26-.31.09-.74-.31-.63-.7.75-2.59-1.44-3.47-2.73-4.83-3.24-3.41-6.55-6.76-9.84-10.14-.75-.77-1.45-1.83-2.6-.42.18-1.52-2.11-.13-1.86-1.46.71-3.76-2.44-5.22-4.32-7.27-3.71-4.04-11.38-11.91-11.38-11.91l-3.15-2.84s-10.22-11.57-9.27-19.42l2.7-8.67h0s0,0,0,0c-2.66,2.58-5.32,5.15-7.98,7.73-.27.26-.53.53-.8.79-6.22,6.09-20.32,19.77-20.32,19.77-2.24,2.2-7.1,7.3-7.54,7.39,0,0-14.66,14.41-14.66,14.41h0c1.4-.1,12.11-6.35,12.11-6.35,0,0,12.2-7.36,14.5-7.52,4.04-.27,3.85-2.77,10.42,3.95,6.56,6.72,14.76,15.17,14.76,15.17,0,0,14.86,14.79,22.27,22.2,5.6,5.6,43.65,44.36,43.65,44.36l14.3,14s5.35,5.63,8.33,8.1c2.85,2.36,4.2,6.51,8.51,7.15.13.02.27.43.27.67.02,1.8,1.46,2.68,2.52,3.7,2.48,2.39,4.91,4.83,7.01,7.56,1.56,2.03,3.29,3.53,6.49,3.07-1.28,1.54-.84,2.64,0,3.74.71.93,1.34,1.94,1.96,2.93,2.89,4.63,3.45,9.76,3.35,15.16-.08,4.14-2.94,6.25-5.41,8.78-9.92,10.15-19.83,20.31-29.71,30.5-.67.69-1.51.88-2.25.85-4.98-.26-14.89-.96-14.89-.96l-1.93-.1s2.54,1.96,3.43,3.06c4.08,5.05,23.88,13.58,27.28,10.01Z"/>
    <path class="cls-1" d="m397.95,269.25c-.89,1.1-3.43,3.06-3.43,3.06l1.93-.1s9.91-.7,14.89-.96c.74-.04,1.58.16,2.25.85,9.89,10.18,19.8,20.34,29.71,30.5,2.47,2.53,5.33,4.65,5.41,8.78.1,5.4-.47,10.54-3.35,15.16-.62,1-1.25,2-1.96,2.93-.84,1.1-1.28,2.2,0,3.74-3.2-.46-4.93,1.04-6.49,3.07-2.1,2.73-4.53,5.16-7.01,7.56-1.05,1.01-2.5,1.9-2.52,3.7,0,.23-.14.65-.27.67-4.31.64-5.66,4.78-8.51,7.15-2.98,2.47-8.33,8.1-8.33,8.1l-14.3,14s-38.05,38.76-43.65,44.36c-7.42,7.41-22.27,22.2-22.27,22.2,0,0-8.2,8.45-14.76,15.17-6.56,6.72-6.38,4.22-10.42,3.95-2.3-.15-14.5-7.52-14.5-7.52,0,0-10.71-6.25-12.11-6.35h0s14.66,14.42,14.66,14.42c.44.09,5.3,5.19,7.54,7.39,0,0,14.1,13.68,20.32,19.77.27.26.53.53.8.79,2.66,2.58,5.32,5.15,7.98,7.73,0,0,0,0,0,0h0s-2.7-8.67-2.7-8.67c-.95-7.85,9.27-19.42,9.27-19.42l3.15-2.84s7.68-7.86,11.38-11.91c1.88-2.05,5.03-3.51,4.32-7.27-.25-1.33,2.04.06,1.86-1.46,1.15,1.41,1.85.35,2.6-.42,3.28-3.37,6.59-6.72,9.84-10.14,1.29-1.36,3.48-2.24,2.73-4.83-.11-.39.32-.79.63-.7,2.95.81,3.86-1.88,5.25-3.26,7.15-7.05,40.96-41.85,47.95-49.05,3.37-3.47,6.95-6.71,10.2-10.31,3-3.33,6.28-6.41,9.51-9.53,4.14-4.02,8.55-7.78,12.45-12.01,2.98-3.23,5.99-6.44,9.27-9.34,5.49-4.86,12.02-7.18,16.8-8.23l12.73-1.08c-3.36-2.93-6.56-6.02-9.54-9.34-3.45-3.36-6.89-6.72-10.34-10.08,0,0,0,0,0,0-1.86-1.81-3.72-3.62-5.58-5.43,0,0,0,0,0,0-1.32-1.29-2.64-2.59-3.96-3.88,0,0,0,0,0,0-1.46-1.42-2.92-2.85-4.39-4.27-5.83-5.69-11.67-11.38-17.5-17.07-6.39-6.15-16.85-16.01-20.25-19.57s-23.2,4.97-27.28,10.01Z"/>
    <path class="cls-1" d="m257.21,259.24c-3.4,3.56-13.87,13.42-20.25,19.57-5.83,5.69-11.67,11.38-17.5,17.07-1.46,1.42-2.92,2.85-4.39,4.27,0,0,0,0,0,0-1.32,1.29-2.64,2.59-3.96,3.88,0,0,0,0,0,0-1.86,1.81-3.72,3.62-5.58,5.43,0,0,0,0,0,0-3.45,3.36-6.89,6.72-10.34,10.08-2.98,3.32-6.18,6.41-9.54,9.34l12.73,1.08c4.78,1.04,11.31,3.37,16.8,8.23,3.28,2.9,6.28,6.1,9.27,9.34,3.9,4.23,8.31,7.99,12.45,12.01,3.22,3.12,6.5,6.2,9.51,9.53,3.25,3.6,6.83,6.84,10.2,10.31,6.99,7.21,40.8,42,47.95,49.05,1.4,1.38,2.31,4.07,5.25,3.26.31-.09.74.31.63.7-.75,2.59,1.44,3.47,2.73,4.83,3.24,3.41,6.55,6.76,9.84,10.14.75.77,1.45,1.83,2.6.42-.18,1.52,2.11.13,1.86,1.46-.71,3.76,2.44,5.22,4.32,7.27,3.71,4.04,11.38,11.91,11.38,11.91l3.15,2.84s10.22,11.57,9.27,19.42l-2.7,8.67h0s0,0,0,0c2.66-2.58,5.32-5.15,7.98-7.73.27-.26.53-.53.8-.79,6.22-6.09,20.32-19.77,20.32-19.77,2.24-2.2,7.1-7.3,7.54-7.39,0,0,14.66-14.41,14.66-14.41h0c-1.4.1-12.11,6.35-12.11,6.35,0,0-12.2,7.36-14.5,7.52-4.04.27-3.85,2.77-10.42-3.95-6.56-6.72-14.76-15.17-14.76-15.17,0,0-14.86-14.79-22.27-22.2-5.6-5.6-43.65-44.36-43.65-44.36l-14.3-14s-5.35-5.63-8.33-8.1c-2.85-2.36-4.2-6.51-8.51-7.15-.13-.02-.27-.43-.27-.67-.02-1.8-1.46-2.68-2.52-3.7-2.48-2.39-4.91-4.83-7.01-7.56-1.56-2.03-3.29-3.53-6.49-3.07,1.28-1.54.84-2.64,0-3.74-.71-.93-1.34-1.94-1.96-2.93-2.89-4.63-3.45-9.76-3.35-15.16.08-4.14,2.94-6.25,5.41-8.78,9.92-10.15,19.83-20.31,29.71-30.5.67-.69,1.51-.88,2.25-.85,4.98.26,14.89.96,14.89.96l1.93.1s-2.54-1.96-3.43-3.06c-4.08-5.05-23.88-13.58-27.28-10.01Z"/>
  </g>
</svg>