<svg width="1321" height="968" viewBox="0 0 1321 968" fill="none" xmlns="http://www.w3.org/2000/svg">
<path d="M1320.11 538.046C1319.36 535.716 1318.68 533.366 1317.83 531.076C1314.67 522.556 1311.42 514.086 1308.29 505.556C1306.72 501.306 1305.19 497.046 1302.93 493.096C1302.71 493.976 1302.53 494.856 1302.38 495.736C1302.32 493.846 1302.24 491.956 1302.17 490.056C1300.61 483.186 1297.5 476.776 1294.94 470.336C1291.24 461.006 1287.18 451.696 1283.79 442.276C1280.96 434.406 1276.12 427.486 1274.49 418.956C1273.22 412.346 1269.84 405.976 1267.65 399.396C1267.05 398.686 1267.58 397.116 1266.94 397.046C1263.27 396.676 1265.9 394.556 1265.75 393.236C1265.72 392.996 1265.65 392.766 1265.49 392.566C1265.22 392.286 1264.94 391.996 1264.67 391.716C1263.25 391.266 1261.83 390.866 1260.31 390.856C1259.35 390.856 1258.11 391.106 1257.65 389.996C1257.21 388.926 1258.26 388.226 1258.8 387.426C1259.75 386.026 1262.01 385.186 1260.85 382.836C1258.13 375.826 1255.4 368.816 1252.68 361.806C1251.66 359.006 1250.64 356.206 1249.6 353.406C1247.12 346.716 1244.64 340.036 1242.16 333.356C1241.91 333.086 1241.63 332.766 1241.28 332.716C1238.58 332.346 1237.51 331.216 1239.12 328.566C1239.78 327.476 1239.88 326.246 1239.18 325.066C1238.83 324.416 1238.4 323.806 1238.13 323.126C1234.39 313.596 1230.71 304.046 1226.95 294.526C1223.99 287.006 1221.52 279.316 1218.61 271.776C1216.44 266.166 1214.07 260.706 1211.39 255.346C1210.63 252.646 1210.25 249.856 1208.87 247.316C1207.38 244.576 1206.49 241.536 1205.3 238.666C1202.24 231.286 1200.23 223.546 1196.81 216.266C1192.96 208.076 1190.16 199.386 1186.96 190.896C1182.59 179.256 1178.63 167.446 1173.84 155.986C1169.63 145.926 1166.4 135.506 1162.05 125.486C1158.43 117.156 1156.18 108.236 1152.54 99.9259C1149.69 93.4259 1147.75 86.6259 1144.92 80.1059C1140.14 69.0959 1136.33 57.6559 1132.35 46.3159C1131.12 42.8059 1129.08 39.5059 1128.93 35.6459C1128.34 35.9159 1128.03 36.2459 1127.86 36.6259C1127.92 35.2759 1127.91 33.9359 1127.34 32.6459C1126.81 32.6859 1126.61 32.4259 1126.66 31.9259C1126.35 31.2159 1124.67 31.5459 1125.46 29.8659C1126.26 28.1859 1125.01 27.1259 1123.43 26.5659C1121.18 25.7659 1118.94 24.8659 1116.47 25.5959C1116.38 25.7159 1116.31 25.8259 1116.25 25.9359C1116.3 25.8459 1116.35 25.7459 1116.42 25.6459C1116.76 22.2459 1119.26 21.2659 1122.05 20.6059C1122.44 18.4159 1121.73 16.4759 1120.7 14.6159C1118.81 12.9659 1118.38 10.9559 1119.18 8.62586C1118.16 5.95586 1117.14 3.28586 1116.11 0.615857C1115.94 0.435857 1115.77 0.105857 1115.59 0.0958574C1106.73 -0.0741426 1097.88 0.0358575 1089.02 0.0258575C1087.81 0.0258575 1087.05 0.465858 1087.62 1.86586C1088.44 5.77586 1089.85 9.43586 1091.51 13.0859C1092.34 14.9059 1093.45 16.6859 1093.94 18.7059C1095.51 25.1959 1098.23 31.3459 1100.83 37.3859C1103.9 44.5359 1106.01 52.0059 1109.18 59.1359C1112.22 65.9559 1114.58 73.1859 1117.24 80.2159C1120.4 88.5759 1123.27 97.0859 1126.91 105.256C1128.55 108.936 1128.95 113.096 1131.4 116.426C1140.07 120.096 1145.26 125.936 1143.7 136.046C1143.51 137.256 1143.65 138.526 1143.68 139.766C1143.75 143.086 1143.21 146.466 1144.6 149.666C1144.97 150.806 1144.91 151.966 1145.4 153.166C1149.33 162.876 1152.97 172.706 1156.7 182.486C1160.23 191.736 1163.79 200.986 1167.41 210.206C1171.94 221.736 1176.06 233.426 1180.51 244.986C1181.49 247.536 1181.41 250.566 1183.67 252.576C1184.17 254.576 1184.41 256.676 1185.81 258.336C1186.35 259.166 1186.89 259.996 1187.42 260.826C1187.98 264.676 1187.56 265.186 1183.9 265.486C1181.58 265.676 1179.2 264.966 1176.92 265.916L1172.34 266.106C1166.39 264.836 1160.41 265.506 1154.43 265.846C1151.8 266.866 1149.16 267.006 1146.5 265.926C1142.12 266.356 1137.75 266.516 1133.38 265.866C1133.14 265.806 1132.9 265.746 1132.66 265.686C1125.91 265.536 1119.17 265.056 1112.43 265.866C1108.57 265.506 1104.73 267.576 1100.86 265.916C1099.54 266.436 1098.15 266.226 1096.8 266.226C1084.61 266.246 1072.42 266.216 1060.22 266.256C1058.38 266.256 1056.49 265.866 1054.69 266.576C1049.69 266.526 1044.68 267.096 1039.68 266.526C1037.2 266.016 1034.7 266.176 1032.21 266.426C1027.61 267.496 1022.83 267.046 1018.26 267.016C1012.07 266.976 1005.84 267.166 999.643 266.836C993.843 266.526 988.043 267.766 982.263 266.696C973.763 267.146 965.273 267.246 956.783 266.646C956.563 267.016 956.353 267.016 956.133 266.646C946.893 267.216 937.663 267.166 928.423 266.686C927.393 266.686 926.363 266.686 925.333 266.676C922.633 267.146 919.923 267.196 917.223 266.676C916.603 266.676 915.983 266.686 915.363 266.696C910.343 267.326 905.293 266.856 900.263 266.956C898.373 266.996 896.933 267.186 897.943 269.636C899.963 272.806 902.763 274.506 906.603 274.686C908.563 274.776 910.543 275.176 912.323 276.286C919.363 280.686 923.113 287.106 923.063 295.296C922.973 310.656 924.333 325.996 923.783 341.346C923.573 347.076 925.473 352.506 925.123 358.246C925.013 360.066 924.013 361.476 924.143 363.356C924.503 368.696 924.633 374.046 924.043 379.426C923.523 384.126 924.033 388.916 923.863 393.666C923.793 395.586 925.653 397.136 924.743 399.026C923.613 401.356 923.793 403.766 924.573 405.976C925.713 409.176 925.943 411.906 925.043 415.486C923.833 420.306 923.843 425.686 924.123 430.736C924.813 443.346 924.563 455.956 924.623 468.566C924.653 473.956 925.073 479.216 926.183 484.536C929.313 499.616 937.523 511.646 948.453 521.856C953.473 526.546 958.823 531.066 965.053 534.786C960.803 534.826 956.933 534.596 953.063 534.966C943.833 535.846 934.623 535.816 925.383 534.966C920.403 534.516 915.393 534.736 910.393 534.856C907.963 534.916 907.123 536.186 907.593 538.556C908.343 542.346 910.343 544.176 914.233 544.366C919.863 544.646 925.463 544.156 931.053 543.716C957.183 543.836 983.323 543.876 1009.46 543.686C1016.21 543.616 1022.94 544.186 1029.63 544.746C1043.31 545.896 1056.98 546.706 1070.7 546.766C1079.31 546.806 1087.93 546.406 1096.54 547.046C1097.98 547.156 1099.28 546.926 1100.22 545.686C1098.93 549.586 1097.95 553.626 1096.3 557.376C1092.3 566.466 1089.47 575.986 1085.69 585.146C1082.38 593.156 1080.67 601.706 1076.86 609.556C1075.79 611.766 1075.01 614.306 1074.02 616.676C1072.73 619.766 1074.36 622.276 1076.04 624.746C1076.73 625.756 1078.07 626.566 1076.47 628.296C1075.26 629.606 1075.96 632.096 1074.61 634.086C1073.1 630.746 1076.43 626.166 1071.42 624.296C1066.72 635.206 1063.03 646.496 1059.23 657.736C1058.39 660.226 1057.32 662.666 1056.17 664.936C1053.14 670.946 1051.37 677.446 1049.01 683.646C1045.23 693.626 1041.31 703.606 1037.87 713.736C1035.81 719.806 1033.33 725.716 1031.18 731.756C1029.03 737.806 1027.88 744.386 1024.77 749.856C1022 754.736 1021.03 760.066 1018.96 765.056C1016.32 771.396 1014.76 778.236 1012.19 784.696C1011.38 786.756 1012.75 789.266 1014 790.936C1015.19 792.526 1016.58 793.606 1015.54 795.746C1016.03 795.986 1016.53 796.226 1017.69 796.796C1014.42 797.096 1012.25 795.336 1009.73 795.416C1008.55 795.456 1008.07 795.546 1007.62 796.766C1004.26 805.936 1000.89 815.106 997.253 824.166C996.333 826.446 996.593 828.766 995.873 831.056C992.683 841.276 987.493 850.626 983.493 860.466C980.123 868.746 977.603 877.366 974.803 885.876C974.193 887.746 973.893 889.696 972.063 891.406C970.783 888.366 969.503 885.616 968.443 882.776C965.633 875.276 962.993 867.706 960.143 860.226C957.453 853.186 954.733 846.166 952.193 839.066C949.243 830.836 945.653 822.846 942.523 814.676C939.323 806.326 936.413 797.866 933.273 789.496C931.633 785.116 929.683 780.846 928.013 776.466C924.473 767.136 921.083 757.756 917.523 748.426C914.063 739.366 910.353 730.406 907.003 721.316C904.323 714.066 901.963 706.646 898.973 699.576C895.113 690.466 892.543 680.926 888.503 671.896C885.653 665.526 883.633 658.786 881.193 652.236C878.423 644.826 875.623 637.426 872.783 630.036C869.463 621.406 866.063 612.806 862.743 604.186C858.873 594.146 855.003 584.096 851.203 574.026C847.963 565.436 844.763 556.826 841.713 548.166C840.503 544.736 841.673 543.626 845.153 543.746C854.963 544.096 864.773 544.346 874.583 544.516C880.283 544.616 885.993 544.286 891.683 544.576C895.513 544.776 898.953 542.946 902.723 543.126C903.993 543.186 904.013 542.436 903.783 541.386C903.133 538.336 900.373 536.326 896.533 536.326C878.543 536.316 860.543 536.326 842.553 536.326H838.473C874.773 498.496 895.273 454.806 892.043 401.906C888.853 349.696 866.183 307.366 826.153 273.986C826.373 273.546 826.913 273.666 827.383 273.666C844.123 273.666 860.873 273.666 877.613 273.686C878.353 273.686 879.083 273.886 879.823 273.986C879.913 273.896 880.083 273.806 880.073 273.726C879.833 267.936 883.873 269.706 886.793 270.126C888.893 270.426 889.463 273.116 891.353 274.006C892.023 274.006 892.683 274.006 893.353 274.006C894.503 271.676 890.793 270.506 891.963 268.176C890.043 267.906 888.123 267.396 886.193 267.396C878.403 267.386 870.623 267.576 862.833 267.596C850.023 267.626 837.213 267.836 824.413 267.466C819.323 267.316 814.063 267.776 809.093 265.946C809.073 265.946 809.063 265.946 809.043 265.946C801.963 266.986 794.853 266.846 787.733 266.626C784.823 268.496 781.713 266.706 778.653 267.086C771.543 267.976 764.333 268.326 757.153 267.966C742.073 267.196 726.973 267.926 711.893 267.566C704.933 267.396 697.963 267.396 690.993 267.326C688.493 267.306 686.003 267.286 683.503 267.266C680.443 268.416 677.343 267.266 674.253 267.366C657.643 267.926 640.993 266.916 624.393 268.296C622.913 268.416 621.273 267.606 619.893 267.946C614.913 269.196 609.893 268.296 604.903 268.446C599.313 268.616 593.703 268.346 588.103 268.306C579.393 268.246 570.683 268.016 561.983 268.266C557.473 268.396 553.003 266.426 548.503 268.106C545.253 268.146 542.013 268.186 538.763 268.236C538.033 268.426 537.243 266.756 536.563 268.306C535.993 268.066 535.423 268.036 534.893 268.406C532.503 266.956 529.963 268.026 527.483 267.976C524.243 267.626 521.003 267.566 517.763 268.006C517.003 268.546 516.243 268.486 515.483 267.986C511.733 267.616 507.993 267.506 504.253 268.066C503.833 268.116 503.423 268.156 503.003 268.206C501.253 273.976 502.023 275.036 507.763 275.176C513.703 275.326 519.653 274.656 525.583 275.576C530.813 275.266 536.013 276.026 541.233 275.936C543.083 275.906 545.013 276.166 546.633 274.906C546.883 274.596 547.033 274.316 547.103 274.066C548.183 275.486 549.123 275.486 549.873 273.636C550.343 275.596 551.933 274.656 552.953 274.646C564.193 274.636 575.433 274.496 586.683 274.436C593.873 274.396 598.513 278.076 601.773 284.546C606.163 293.266 605.123 302.406 605.143 311.536C605.173 325.996 603.913 340.426 604.423 354.896C604.623 360.736 604.303 366.616 603.773 372.446C603.283 377.866 602.993 383.506 603.643 388.656C604.213 393.196 602.493 397.236 603.163 401.646C603.843 406.126 603.253 410.796 603.163 415.386C602.963 426.176 602.763 436.966 602.493 447.756C602.103 463.406 601.773 479.056 601.533 494.706C601.473 498.456 602.723 500.116 606.983 502.156C600.183 502.936 601.293 507.086 600.933 510.706C600.053 519.456 595.103 525.966 589.213 532.126C584.413 537.146 578.803 537.526 572.523 537.006C567.683 536.606 562.783 536.706 557.923 536.856C555.443 536.936 555.093 536.066 555.263 533.826C555.953 524.976 556.913 516.126 556.093 507.226C555.913 505.296 557.863 503.526 556.563 501.466C555.393 501.286 554.853 502.046 554.343 502.976C551.003 509.046 545.893 513.656 541.323 518.706C540.643 519.456 539.643 520.076 538.353 520.036C519.213 519.516 500.073 519.036 480.923 518.576C476.163 518.456 471.403 519.126 467.433 515.126C462.243 509.896 457.953 504.296 456.373 496.946C456.033 495.366 455.693 493.776 455.503 492.166C455.283 490.276 454.663 488.766 451.983 488.476C455.513 485.846 455.753 482.706 455.353 479.206C454.803 474.496 454.853 469.756 454.993 465.006C455.053 462.996 455.613 460.736 453.943 458.936C453.723 458.706 453.473 458.156 453.583 458.016C457.143 453.236 454.543 447.846 455.063 442.776C455.613 437.476 455.503 432.116 455.463 426.776C455.403 417.586 455.923 408.396 456.073 399.206C456.253 388.296 456.273 377.376 456.403 366.466C456.573 352.026 456.833 337.586 456.983 323.136C457.083 313.416 457.473 303.666 456.933 293.966C456.593 287.866 459.113 283.666 463.263 280.046C465.623 277.986 467.563 275.116 471.113 274.786C479.303 273.976 487.523 274.576 495.723 274.436C502.113 274.336 502.113 274.416 502.023 268.096C497.023 267.796 492.033 267.696 487.033 268.056C485.523 268.046 484.023 268.036 482.513 268.026L474.283 268.006C473.773 268.346 473.263 268.346 472.763 268.006C468.523 268.006 464.283 267.986 460.043 267.976C459.053 268.486 458.043 268.346 457.023 268.106C445.273 268.086 433.533 268.066 421.783 268.046C421.283 268.046 420.773 268.046 420.273 268.036C415.273 268.056 410.283 268.086 405.283 268.106C402.033 268.176 398.793 268.246 395.543 268.316C393.863 266.906 391.983 268.836 390.273 267.996C387.263 267.746 384.263 267.556 381.263 267.766C380.983 267.676 380.673 267.626 380.293 267.646C374.893 267.826 369.483 267.816 364.073 267.876C356.933 267.466 349.793 269.306 342.653 267.776C341.203 268.336 339.693 268.066 338.203 268.066C338.203 268.066 338.043 268.066 337.943 268.116C337.843 268.166 337.723 268.206 337.723 268.206C337.723 268.206 326.073 268.686 320.263 268.716C283.343 268.876 246.423 268.856 209.513 268.896C207.293 268.896 205.083 268.896 202.863 268.896C201.963 268.966 201.063 268.946 200.153 268.896C199.403 270.156 198.153 269.636 197.123 269.636C180.163 269.666 163.203 269.656 146.243 269.666C144.303 269.666 142.303 269.746 144.513 267.036C145.323 269.246 147.223 268.856 148.933 268.856C149.553 268.856 150.173 268.856 150.793 268.856C149.973 268.726 149.353 268.216 149.443 266.606C149.343 262.736 151.963 259.806 153.023 256.336C154.723 254.926 154.233 252.516 155.473 250.896C155.303 250.336 155.373 249.866 155.943 249.576C157.603 246.436 158.123 242.926 159.213 239.596C160.373 237.266 160.343 234.456 162.113 232.366C164.873 227.356 166.863 222.036 168.233 216.486C169.973 210.606 172.103 204.866 174.813 199.356C176.053 197.256 176.203 194.756 177.293 192.596C177.143 192.186 177.313 191.956 177.703 191.836C179.313 189.286 180.613 186.616 180.923 183.566C182.903 179.746 184.453 175.756 185.473 171.566L185.433 171.636C188.123 166.386 189.413 160.616 191.563 155.166C194.093 146.416 197.743 138.086 201.003 129.606C202.223 128.376 201.243 127.886 200.243 127.896C195.353 127.966 190.453 127.426 185.583 128.196C182.993 131.516 183.193 135.966 181.043 139.456C180.143 141.576 179.633 143.836 178.833 145.986C178.273 147.316 177.713 148.646 177.163 149.976C176.253 152.836 174.643 155.386 173.593 158.186C172.653 159.156 174.243 159.856 173.803 160.906C171.843 165.546 170.193 170.326 168.043 174.876C166.453 178.256 164.893 181.616 163.833 185.196C163.493 187.356 162.273 189.206 161.753 191.306C160.633 192.416 160.983 193.736 161.083 195.096C161.083 195.226 161.083 195.356 161.103 195.486C161.003 195.176 160.793 194.936 160.403 194.986C159.693 195.076 159.753 195.946 159.343 196.366C158.613 198.636 157.873 200.916 157.143 203.186C155.493 204.876 155.373 207.106 155.013 209.256C150.233 221.226 145.463 233.206 140.683 245.176C139.623 251.246 135.703 256.296 134.593 262.346C133.773 264.096 132.633 265.716 132.343 267.686C130.683 269.376 128.803 269.046 126.913 268.676C125.023 270.606 122.843 269.866 120.623 268.856C122.513 268.706 124.473 269.136 126.323 268.566C126.063 268.516 125.813 268.476 125.553 268.436C125.193 266.626 125.963 265.026 126.513 263.406C129.623 254.266 132.863 245.166 135.873 235.996C137.733 230.336 140.223 224.946 142.043 219.256C144.833 210.556 148.463 202.136 151.553 193.526C156.233 180.466 160.923 167.426 165.873 154.456C171.153 140.636 175.913 126.626 180.873 112.696C183.463 105.436 186.023 98.1659 188.563 90.8959C192.083 80.8459 195.513 70.7659 199.093 60.7359C201.143 55.0059 203.003 49.1659 205.263 43.5559C207.073 39.0459 207.833 34.1359 210.423 29.9459C210.453 28.1559 212.433 27.2059 212.383 25.3859C213.013 18.7059 216.473 12.9259 218.373 6.63586C219.563 4.87586 218.793 4.09586 216.973 4.11586C209.263 4.19586 201.543 3.81586 193.843 4.31586C191.983 6.50586 192.223 9.51586 190.853 11.9159C187.943 17.0059 186.233 22.7859 184.683 28.2059C182.873 34.5259 180.393 40.6359 178.243 46.7359C174.823 56.4059 172.083 66.3559 167.893 75.7959C165.593 80.9759 165.423 87.1359 162.963 92.2059C158.893 100.586 156.353 109.506 152.863 118.066C147.803 130.496 143.643 143.296 139.093 155.936C138.473 157.796 137.343 159.456 136.903 161.386C137.323 162.466 135.523 162.966 136.193 164.106C136.593 167.316 137.533 170.446 137.373 173.726C137.353 174.186 137.713 174.706 137.403 175.086C135.103 177.856 134.813 177.956 135.403 179.396C136.413 181.866 134.893 182.446 133.163 183.096C131.673 183.656 129.853 183.116 128.613 184.466C125.903 190.556 123.363 196.706 121.713 203.186C121.763 206.616 121.163 209.786 118.073 211.916C116.423 216.506 115.173 221.296 113.023 225.646C110.603 230.546 109.853 236.066 107.053 240.736C105.073 244.036 104.713 247.876 102.903 251.186C102.153 254.216 104.163 258.126 100.083 260.106C99.4032 260.426 99.5732 261.136 99.3332 261.646C98.1432 264.176 97.5432 267.416 94.4332 268.266C91.1132 269.166 87.6132 269.326 84.2232 269.986C80.3232 270.736 75.5732 271.016 72.8332 272.896C67.5032 276.546 61.1232 278.686 56.6432 283.576C54.8432 283.336 53.5532 284.326 52.3632 285.446C47.4132 290.146 42.4032 294.796 37.8432 299.886C32.5632 305.006 29.3332 311.546 25.3332 317.586C20.0632 325.536 15.9932 333.976 12.2932 342.676C10.6132 346.146 12.0832 349.276 13.5632 352.256C15.0332 355.216 14.1132 356.856 11.3632 358.146C9.59316 358.976 7.53316 359.386 6.33316 361.186C4.47316 363.996 4.45316 367.236 4.14316 370.406C4.11316 372.886 7.31316 375.736 3.31316 377.776C2.72316 378.506 2.03316 379.006 1.75316 380.126C1.00316 383.136 1.52316 386.186 1.07316 389.176C0.24316 392.966 1.20316 396.846 0.62316 400.616C-0.26684 406.356 -0.27684 412.016 1.07316 417.676C0.48316 422.256 1.56316 426.806 1.58316 431.396C1.61316 436.516 3.01316 441.906 4.38316 446.956C7.19316 457.256 9.65316 467.736 14.3932 477.446C16.6632 482.096 17.9732 487.386 20.9432 491.486C27.9332 501.136 34.5632 511.096 43.2432 519.456C49.5532 525.536 55.2932 532.226 63.3132 536.246C64.3332 537.666 65.8732 538.336 67.3832 539.066C68.6232 539.996 70.0732 540.386 71.5732 540.656C73.3732 541.606 75.2832 541.806 77.2932 541.816C80.5032 541.846 83.7232 541.436 86.9232 542.076C89.0932 543.546 91.6832 543.216 94.0832 543.746C95.4032 544.286 96.7932 544.016 98.1432 544.016C112.823 544.036 127.503 544.016 142.183 544.036C143.543 544.036 144.923 543.836 146.253 544.346C154.503 544.346 162.753 544.346 171.013 544.336C172.753 544.056 174.483 543.756 174.653 541.106C175.873 542.126 174.023 543.236 174.393 544.276C176.023 544.016 177.843 544.106 179.093 543.136C179.033 543.556 179.143 543.966 179.703 544.366C182.413 544.256 185.123 544.296 187.833 544.346C192.323 544.416 196.883 544.916 201.313 543.626C202.573 544.256 203.943 544.216 205.293 544.226C209.333 544.266 213.373 544.276 217.423 544.306C219.233 543.976 221.073 543.976 222.903 544.046C225.433 543.886 227.973 544.126 230.503 544.046C237.273 543.816 244.053 544.456 250.813 543.696C251.063 543.696 251.323 543.706 251.573 543.716C254.063 544.266 256.563 544.196 259.063 543.756C261.073 543.756 263.073 543.756 265.083 543.756C269.823 544.256 274.563 544.136 279.303 543.826C279.563 543.796 279.823 543.766 280.083 543.736C290.573 544.236 301.073 544.226 311.563 543.736C311.823 543.756 312.073 543.766 312.333 543.786C317.673 544.346 323.033 543.866 328.373 544.036C334.833 544.236 341.303 543.616 347.753 544.356C348.983 544.316 350.213 544.326 351.433 544.216C357.363 543.656 363.393 545.356 369.263 543.506C374.453 545.056 379.763 544.056 385.013 544.156C385.023 544.186 385.033 544.226 385.043 544.256C385.643 544.256 386.253 544.256 386.853 544.256C387.003 544.266 387.163 544.276 387.313 544.286C387.453 544.296 387.563 544.286 387.653 544.246C393.273 544.216 398.893 544.186 404.513 544.156C410.523 543.806 416.523 543.766 422.523 544.176C429.013 544.176 435.513 544.176 442.003 544.166C445.503 544.166 449.013 544.156 452.513 544.146C455.013 544.146 457.503 544.146 460.003 544.156C462.753 544.156 465.513 544.156 468.263 544.156C479.263 544.156 490.253 544.156 501.253 544.146C513.213 544.066 525.183 543.906 537.143 543.916C559.643 543.926 582.153 544.066 604.653 544.096C621.553 544.116 638.453 544.056 655.353 544.036C656.353 543.696 657.373 543.656 658.393 543.686C663.013 543.296 667.653 543.586 672.263 543.686C672.883 543.686 673.513 543.666 674.133 543.656C676.613 543.336 679.003 541.826 681.523 543.266C691.763 543.216 702.013 543.276 712.253 543.096C724.663 542.866 737.023 544.146 749.413 544.086C752.853 542.736 756.423 543.416 759.953 543.446C763.953 542.996 767.963 543.146 771.963 543.406C777.403 543.466 782.853 543.736 788.293 543.516C791.673 543.376 792.963 544.686 792.863 547.846C795.043 550.396 795.853 553.786 796.703 556.716C798.663 563.436 801.563 569.796 804.043 576.246C806.773 583.356 809.213 590.606 812.223 597.636C815.203 604.596 817.803 611.816 820.273 619.036C822.393 625.236 825.073 631.306 827.493 637.436C829.173 641.666 830.423 646.076 832.683 650.066C833.383 651.986 834.093 653.896 834.793 655.816C835.953 659.466 836.943 663.196 838.323 666.766C841.233 674.316 844.623 681.666 847.333 689.306C851.143 700.056 855.743 710.526 859.743 721.206C865.743 737.216 871.423 753.346 877.443 769.346C879.153 773.886 880.343 778.706 882.593 782.936C884.983 787.436 886.353 792.306 888.083 796.946C890.693 803.956 893.293 811.026 896.023 817.986C897.653 822.136 899.673 826.276 901.013 830.486C903.873 839.456 907.513 848.146 910.993 856.826C915.863 869.006 920.023 881.446 925.003 893.566C929.313 904.056 933.253 914.696 937.203 925.326C940.183 933.336 943.293 941.296 946.273 949.306C948.453 955.146 950.373 961.236 954.193 966.366C958.743 968.456 960.533 967.466 961.603 962.296C963.093 956.956 965.573 952.006 967.663 946.906C974.253 930.806 980.923 914.746 987.573 898.676C992.053 890.396 994.713 881.376 997.803 872.566C1001.17 862.976 1004.71 853.426 1007.69 843.706C1009.55 837.666 1012.44 832.016 1014.09 825.916C1014.07 825.936 1014.06 825.966 1014.04 825.986C1016.15 819.986 1018.19 813.956 1020.4 807.986C1021.33 805.486 1021.29 802.646 1023.06 800.456C1024.13 794.436 1026.53 788.836 1028.49 783.096C1031.34 774.756 1034.37 766.476 1037.32 758.166C1038 753.986 1040.06 750.316 1041.64 746.466C1043.45 741.406 1045.26 736.356 1047.07 731.296C1047 730.736 1047.03 730.226 1047.65 729.966C1048.46 727.936 1049.28 725.906 1050.09 723.876C1051.43 719.036 1053.15 714.326 1055.12 709.706C1056.05 707.266 1056.98 704.826 1057.91 702.376C1058.02 702.046 1058.14 701.716 1058.28 701.396V701.416C1058.28 701.416 1058.28 701.406 1058.28 701.396C1058.28 701.396 1058.28 701.396 1058.28 701.406C1059.65 698.186 1060.23 694.656 1062.1 691.636C1062.12 690.216 1062.88 689.126 1063.69 688.046C1063.96 685.356 1064.88 682.856 1065.85 680.356C1068.04 674.646 1070.23 668.926 1072.41 663.216C1073.62 660.506 1073.79 657.396 1075.62 654.926C1075.78 652.156 1077.21 649.846 1078.38 647.456C1079.47 645.576 1079.06 643.066 1080.84 641.466C1082.18 638.776 1081.33 635.316 1083.82 633.026C1084.53 631.086 1084.84 628.986 1086.18 627.306C1086.38 624.486 1087.54 622.056 1089.14 619.786C1089.16 618.096 1089.76 616.586 1090.61 615.166C1091.46 610.986 1093.42 607.196 1094.81 603.206C1094.99 600.016 1096.72 597.416 1098.06 594.676C1098.36 593.806 1098.66 592.926 1098.96 592.056C1099.11 589.846 1100.5 588.066 1101.07 585.996C1101.07 585.996 1101.07 585.996 1101.06 585.996C1101.63 584.276 1102.2 582.556 1102.77 580.836C1104.88 580.366 1103.49 578.576 1104.04 577.516C1104.33 575.396 1105.61 573.686 1106.45 571.796C1109.25 565.666 1111.84 559.466 1113.07 552.796C1115.36 547.986 1115.72 542.436 1118.84 537.946C1120.62 536.246 1120 533.596 1121.3 531.706C1121.35 531.316 1121.4 530.926 1121.45 530.546C1122.71 528.686 1123.02 526.496 1123.6 524.396C1123.46 523.816 1123.47 523.276 1124.07 522.936C1125.77 521.296 1125.92 519.016 1126.56 516.936L1126.53 517.006C1127.48 514.536 1128.21 511.996 1128.85 509.426C1129.24 508.686 1129.63 507.946 1130.03 507.206C1131.78 505.236 1131.17 502.646 1131.84 500.396C1133.58 495.926 1135.27 491.426 1137.06 486.976C1138.85 482.516 1139.91 477.766 1142.17 473.486C1143.56 471.666 1143.72 469.376 1144.58 467.346L1144.44 467.066L1144.62 466.816C1145.77 465.196 1145.66 463.076 1146.76 461.436C1148.43 459.516 1148.19 456.946 1149.03 454.746C1151.04 452.906 1149.89 449.986 1151.36 447.956C1150.83 446.486 1152.41 445.936 1152.75 444.776C1155.31 436.206 1158.38 427.806 1161.66 419.476C1163.38 417.526 1163.4 414.966 1164.08 412.646C1166.39 406.046 1168.23 399.226 1171.23 392.956C1172.49 390.316 1172.31 387.216 1174.3 384.956C1176.69 382.906 1175.98 379.846 1176.79 377.286C1177.95 372.646 1180.14 368.396 1181.88 363.986C1183.96 362.086 1183.75 359.396 1184.28 356.966C1184.94 354.186 1185.5 351.356 1187.4 349.066C1188.85 346.996 1188.96 344.526 1189.49 342.186C1191.4 339.666 1191.81 336.606 1192.54 333.666C1193.29 332.046 1193.28 330.106 1194.6 328.716C1196.95 326.686 1196.42 323.716 1197.07 321.126C1198.48 319.596 1198.32 317.526 1198.91 315.716C1199.71 313.286 1200.95 312.566 1203.53 313.486C1205.57 314.216 1206.88 315.416 1207.69 317.246C1208.89 319.936 1209.7 322.796 1210.71 325.556C1214.05 334.666 1216.97 343.916 1220.54 352.966C1223.93 361.576 1226.09 370.656 1229.49 379.286C1234.74 392.596 1238.88 406.286 1243.8 419.706C1245.42 424.146 1246.91 428.636 1248.58 433.046C1251.34 440.316 1254 447.626 1256.59 454.966C1258.04 459.076 1259.38 463.246 1260.53 467.446C1261.36 470.446 1263.33 473.046 1264 475.916C1266.05 484.696 1269.81 492.836 1272.64 501.316C1274.67 507.406 1277.89 513.406 1274.41 520.026C1273.14 521.766 1273.37 524.106 1272.12 525.846C1269.55 528.886 1266.53 531.216 1262.54 532.076C1259.79 532.956 1256.9 531.896 1254.14 532.676C1253.74 532.746 1253.35 532.806 1252.95 532.876C1252.59 532.896 1252.39 533.086 1252.33 533.406C1251.05 532.916 1249.71 533.176 1248.4 533.176C1232.29 533.156 1216.18 533.166 1200.06 533.166C1194.19 533.166 1188.31 533.306 1182.45 533.096C1179.91 533.006 1179.05 534.216 1178.88 536.286C1178.77 537.586 1178.18 539.016 1179.31 540.206L1179.61 540.116L1179.87 540.296C1182.12 540.896 1184.37 540.906 1186.62 540.296C1190.02 540.266 1193.42 540.236 1196.81 540.196C1199.73 539.716 1202.65 539.686 1205.56 540.216C1207.17 540.156 1208.78 540.056 1210.39 540.046C1225.74 540.006 1241.08 539.986 1256.43 539.966C1265.41 540.066 1274.38 540.176 1283.36 540.276C1286.41 541.076 1289.52 540.436 1292.59 540.626C1293.32 540.466 1293.82 540.116 1294.2 539.656C1294.32 540.016 1294.63 540.346 1295.28 540.636C1301.54 540.346 1307.83 541.246 1314.07 540.176L1314 540.196C1315.51 539.566 1317.09 540.006 1318.64 539.896C1319.87 539.806 1320.9 539.646 1320.04 538.026L1320.11 538.046ZM1118.33 28.5159C1117.88 27.9159 1116.22 28.0559 1115.95 27.1959C1116.27 27.8859 1117.7 27.8859 1118.27 28.4059C1118.44 28.5659 1118.6 28.4859 1118.61 28.3259C1118.64 27.8259 1118.98 28.7759 1118.32 28.5159H1118.33ZM1127.87 40.1059C1127.79 39.4659 1127.78 38.8359 1127.8 38.2059C1127.9 38.8459 1128.04 39.5059 1127.87 40.1059ZM161.193 204.816C161.183 202.266 161.183 199.726 161.153 197.176C161.243 199.726 161.203 202.266 161.193 204.816ZM163.293 216.876C164.763 220.106 161.933 222.536 161.433 225.416C161.053 227.606 159.203 229.846 158.463 232.296C158.383 232.556 157.623 232.606 157.173 232.756C159.293 227.496 160.713 221.966 163.293 216.876ZM154.273 239.986C154.133 243.626 153.303 247.036 151.003 249.966C152.013 246.616 152.483 243.086 154.273 239.986ZM150.533 251.286C149.893 253.176 150.733 255.736 148.083 256.726C148.513 254.736 149.063 252.806 150.533 251.286ZM20.5732 431.586C18.1032 418.986 19.5632 406.286 20.0132 393.646C20.2432 387.126 20.1332 380.436 21.4032 374.126C22.6232 368.026 25.1932 362.076 25.9632 355.866C27.0232 347.316 31.9932 340.266 33.9832 332.126C34.1532 331.406 34.4532 330.666 34.8932 330.086C42.0232 320.706 47.2132 309.976 54.8632 300.996C60.0732 294.886 67.1532 291.556 74.7132 289.236C77.2132 288.466 79.7132 287.676 82.2632 287.106C83.8632 286.746 85.2932 286.736 84.2832 289.316C82.1632 294.676 80.6032 300.256 78.2932 305.526C74.3232 314.586 70.8932 323.836 67.4932 333.116C64.1732 342.196 60.5732 351.186 57.4532 360.336C47.3232 390.036 35.4232 419.056 24.1732 448.416C22.1332 442.896 21.6832 437.176 20.5832 431.596L20.5732 431.586ZM44.2832 494.786C38.3232 490.706 36.6632 485.866 38.9332 479.926C47.3932 457.726 55.8832 435.526 64.3532 413.326C71.7532 393.916 79.1032 374.496 86.5632 355.106C90.8632 343.936 95.7132 332.956 99.6232 321.646C102.683 312.786 106.803 304.336 109.433 295.316C109.903 293.706 111.083 292.316 111.693 290.666C112.893 287.436 115.453 288.536 117.673 289.156C120.433 289.926 118.773 291.576 118.293 292.976C116.243 298.926 114.783 305.166 112.043 310.776C107.853 319.376 105.263 328.536 101.743 337.356C97.7232 347.456 94.8132 357.976 90.3032 367.916C88.6132 371.636 87.8932 375.756 85.8732 379.376C84.8432 381.226 86.9232 381.196 87.5932 382.026C85.3432 383.656 84.3632 385.896 84.0532 388.646C83.5332 393.196 81.5932 397.406 80.5332 401.836C80.4132 401.976 80.2832 402.106 80.1632 402.246C78.8032 401.526 78.2632 402.196 77.7032 403.436C71.1332 417.806 65.7132 432.586 60.4632 447.486C57.3032 456.446 54.4732 465.566 50.8532 474.416C48.2032 480.906 44.9532 487.366 44.3032 494.786H44.2832ZM94.5932 387.816C91.9832 386.806 90.8232 384.746 90.4032 382.126C92.2532 383.686 93.3032 385.846 94.5932 387.816ZM95.1532 526.216C91.7032 526.056 88.2532 526.766 84.7632 525.986C75.1632 523.836 66.5832 519.776 59.3532 513.046C52.1232 506.326 53.5632 508.926 56.7732 500.506C61.3132 488.616 66.3932 476.936 71.2632 465.166C71.8732 463.676 72.5632 462.226 73.2232 460.756C76.3132 452.276 79.3932 443.786 82.4932 435.306C85.5932 426.826 88.7132 418.346 91.8432 409.866C92.1632 409.016 92.4832 407.886 91.9032 407.366C89.7432 405.426 93.7232 406.656 92.1932 405.026C88.2932 405.686 84.3832 403.596 80.2632 402.286C80.2032 402.316 80.1432 402.336 80.0832 402.356L80.1532 402.246C80.1932 402.256 80.2232 402.266 80.2632 402.276C83.3732 400.866 86.7032 399.946 89.9732 399.246C94.0532 398.366 95.5632 397.156 95.5032 392.766C95.5032 392.386 95.6332 392.046 95.8832 391.746C96.9932 393.086 97.7932 393.976 98.7332 391.416C103.493 378.466 108.233 365.526 112.393 352.356C116.803 338.396 122.243 324.746 127.243 310.976C127.403 310.536 127.773 310.176 128.043 309.776C129.663 305.216 131.343 300.676 132.883 296.086C133.523 294.176 134.463 295.246 135.453 295.556C148.553 299.626 156.343 309.446 162.883 320.706C171.653 335.816 174.623 352.586 177.203 369.516C178.993 381.256 179.523 393.106 179.283 404.876C179.053 416.146 178.333 427.456 176.843 438.726C174.573 455.786 168.233 471.396 160.383 486.286C153.963 498.466 143.503 507.426 132.073 515.146C120.873 522.696 108.773 526.836 95.1632 526.206L95.1532 526.216ZM248.273 296.626C244.853 300.366 244.523 304.936 244.523 309.586C244.553 327.436 243.523 345.266 243.163 363.106C242.863 377.826 242.043 392.536 241.803 407.256C241.723 412.196 244.353 417.216 241.223 422.036C241.603 430.746 242.183 439.416 241.773 448.176C241.393 456.126 241.873 464.166 241.233 472.086C240.403 482.316 240.683 492.556 240.543 502.766C240.373 514.906 237.633 525.216 226.633 531.916C226.103 532.236 225.593 532.606 225.103 532.996C222.993 534.656 220.683 535.516 218.123 535.766C215.353 536.946 212.323 537.426 208.883 537.146C203.133 536.686 197.313 536.926 191.523 537.026C191.473 537.216 191.453 537.396 191.463 537.556C191.213 537.356 190.943 537.196 190.673 537.036C190.123 537.036 189.573 537.056 189.033 537.056C188.163 537.056 186.933 536.526 186.593 538.016C183.173 536.736 179.673 536.736 176.143 537.436C173.283 536.186 170.543 537.756 167.743 537.766C156.993 537.786 146.253 537.776 135.503 537.766C135.193 537.766 134.873 537.606 133.813 537.316C141.013 533.576 146.633 528.716 152.533 524.216C164.653 514.976 173.953 503.556 181.143 490.116C186.593 479.946 190.553 469.176 194.553 458.476C199.383 445.576 201.993 432.056 202.163 418.106C202.293 407.256 202.803 396.406 202.603 385.536C202.373 373.046 200.913 360.706 197.823 348.636C194.613 336.106 190.003 324.106 183.083 313.046C178.173 305.196 172.383 298.086 166.343 291.106C161.773 285.826 156.143 281.946 150.763 277.696C150.093 277.166 149.343 276.656 149.333 275.576C150.543 274.666 151.963 275.156 153.263 275.156C174.253 275.126 195.253 275.276 216.243 275.056C218.133 275.036 219.923 275.266 221.633 275.676C230.883 276.066 239.653 279.336 243.003 289.806C243.413 291.086 244.083 292.186 245.163 292.796C245.893 292.746 246.453 292.926 246.703 293.276C246.783 293.276 246.853 293.306 246.943 293.306C249.773 293.456 249.863 294.896 248.303 296.596L248.273 296.626ZM277.583 451.266C277.583 473.406 277.583 495.556 277.583 517.696C277.583 518.286 277.493 518.876 277.413 519.736C272.633 517.416 269.683 514.896 269.723 508.836C269.933 474.596 269.623 440.346 269.533 406.106C269.533 404.676 268.733 402.436 270.163 401.976C272.193 401.316 274.643 401.436 276.793 401.856C278.303 402.146 277.553 404.016 277.553 405.156C277.603 420.526 277.583 435.896 277.583 451.276V451.266ZM277.533 288.556C277.603 305.166 277.583 321.766 277.583 338.376C277.583 354.986 277.463 371.586 277.683 388.196C277.733 391.876 276.013 391.836 273.403 391.726C271.123 391.636 269.383 392.166 269.473 388.396C269.763 375.966 269.073 363.516 269.403 351.086C269.933 331.126 269.873 311.166 269.763 291.206C269.743 286.836 272.313 284.746 276.543 285.596C278.523 285.996 277.523 287.576 277.533 288.556ZM301.813 287.096C307.393 285.966 312.813 286.586 317.953 287.976C325.513 290.026 333.833 290.356 340.053 296.136C345.193 300.916 351.143 305.086 354.513 311.376C358.963 319.666 363.203 328.066 362.293 338.116C361.933 341.996 362.373 346.016 361.943 349.956C360.643 361.876 356.223 372.196 346.423 379.686C342.963 382.326 339.713 385.206 335.913 387.456C326.243 393.196 315.903 395.356 304.783 394.256C298.613 393.646 298.613 393.696 298.613 387.516C298.613 371.896 298.613 356.276 298.613 340.656C298.613 323.916 298.653 307.166 298.563 290.426C298.553 287.866 299.293 287.606 301.823 287.086L301.813 287.096ZM329.643 523.326C325.563 524.346 321.383 524.986 317.313 526.056C313.463 527.076 309.613 526.326 305.823 526.196C303.803 526.126 301.813 524.676 299.453 524.596C297.913 524.536 298.643 522.516 298.633 521.396C298.593 499.916 298.603 478.436 298.593 456.956C298.593 440.656 298.623 424.366 298.553 408.066C298.543 405.536 298.713 404.456 301.973 404.006C314.213 402.316 325.953 404.026 337.473 407.936C342.233 409.546 345.833 413.126 349.703 416.146C354.703 420.046 357.703 425.546 360.703 431.016C361.883 433.156 362.373 436.146 365.733 436.406C366.903 436.496 366.753 437.546 366.133 437.976C364.283 439.276 365.133 440.746 365.543 442.296C366.343 445.296 367.483 448.256 367.213 451.426C366.933 454.696 368.033 456.426 371.603 456.036C372.673 455.916 373.823 456.166 374.853 457.156C374.473 457.546 374.343 457.816 374.143 457.866C369.933 458.956 368.713 461.396 368.833 465.916C369.093 475.796 367.153 485.356 362.463 494.296C361.213 496.686 359.103 499.096 359.823 502.396C359.893 502.716 357.143 503.616 356.273 504.956C353.793 508.746 350.023 511.266 346.993 514.506C342.243 519.566 336.073 521.716 329.633 523.316L329.643 523.326ZM427.543 345.196C425.103 344.916 425.433 346.626 425.433 348.106C425.443 354.596 425.413 361.086 425.493 367.566C425.523 370.146 424.243 373.136 427.403 374.956C427.883 375.236 427.843 376.036 427.453 376.256C423.843 378.296 425.503 381.826 425.453 384.526C425.203 398.356 425.363 412.196 425.403 426.036C425.423 432.696 425.013 439.346 425.273 446.016C425.513 452.186 425.243 458.376 425.083 464.566C424.873 472.516 424.163 480.466 424.383 488.396C424.553 494.456 424.663 500.506 424.243 506.526C423.523 516.596 416.853 523.446 410.213 530.046C404.923 535.306 398.453 537.896 390.833 537.166C390.953 536.896 391.073 536.626 391.183 536.346C385.663 536.346 380.423 536.386 375.173 536.316C373.873 536.296 372.563 537.216 371.623 537.026C371.253 536.946 370.883 536.896 370.513 536.836C370.153 536.606 369.673 536.466 368.963 536.506C368.753 536.516 368.553 536.516 368.343 536.526C364.053 536.036 359.763 536.246 355.473 536.616C354.753 536.666 354.033 536.726 353.313 536.816C350.903 536.706 348.503 536.596 345.043 536.436C350.753 532.146 355.523 528.376 360.113 524.376C366.553 518.776 372.253 512.516 377.493 505.816C385.313 495.826 386.863 483.986 387.793 471.856C388.403 463.886 388.143 456.026 386.473 448.226C384.813 440.466 381.083 433.436 378.383 426.036C377.183 422.756 375.473 420.006 373.373 417.186C366.113 407.436 357.083 400.356 345.553 396.386C346.503 393.296 349.783 394.576 351.753 393.216C357.853 389.026 363.723 384.586 367.823 378.346C371.103 373.356 375.343 369.036 377.713 363.376C380.973 355.586 382.013 347.536 382.423 339.156C382.863 330.176 382.463 321.376 379.823 312.836C378.833 309.636 378.303 305.736 374.253 304.256C368.403 302.126 368.343 302.026 371.133 296.536C371.893 295.046 371.443 294.136 370.513 293.256C369.743 292.526 369.343 291.016 367.553 292.076C365.203 293.466 364.353 292.346 364.813 289.866C365.213 287.706 365.083 285.826 362.983 284.346C357.713 280.616 351.883 277.936 346.123 275.116C346.123 274.666 346.103 274.216 346.093 273.766L346.343 273.886L346.573 273.736C347.803 273.836 349.033 274.006 350.263 274.026C357.023 274.136 363.783 274.336 370.533 274.246C374.883 274.186 379.243 274.596 383.593 274.276C384.833 274.976 386.213 275.226 387.893 274.396C389.713 273.496 391.703 275.936 393.063 273.636C394.533 275.756 396.353 274.626 398.093 274.186C401.853 274.816 406.163 273.306 409.343 275.916C417.663 282.736 424.293 290.766 425.383 302.086C425.573 304.036 424.913 306.066 425.023 307.926C425.473 315.496 425.023 323.066 425.253 330.626C425.373 334.456 423.713 338.936 427.933 341.956C429.433 343.026 425.913 343.866 427.523 345.186L427.543 345.196ZM734.853 536.286C708.363 536.326 681.863 536.186 655.383 536.416C649.243 536.476 643.623 536.156 639.233 531.286C638.343 531.726 638.153 531.046 637.903 530.456C630.023 522.636 628.823 512.706 629.023 502.336C629.143 496.086 629.793 489.786 629.283 483.586C628.583 475.026 629.513 466.546 629.493 458.036C629.473 449.306 629.133 440.566 630.033 431.856C626.993 428.116 630.033 424.166 629.763 420.296C629.303 413.816 629.873 407.276 629.933 400.756C630.013 392.696 630.473 384.656 630.283 376.586C630.223 373.936 627.733 372.746 627.533 370.926C627.333 369.136 630.623 368.116 630.593 365.476C630.533 359.996 630.733 354.506 630.783 349.026C630.953 333.106 630.933 317.176 631.353 301.266C631.533 294.346 633.693 287.836 638.363 282.456C639.273 281.406 639.993 280.286 640.723 279.126C642.613 276.116 645.043 274.046 648.923 274.396C650.533 274.536 652.173 274.466 653.793 274.416C684.063 273.366 714.333 273.756 744.853 273.646C742.993 275.856 740.933 277.336 738.623 278.566C728.443 284.006 720.033 291.596 711.883 299.696C699.553 311.946 691.723 326.886 684.783 342.466C683.093 346.246 684.533 349.646 686.223 352.776C687.983 356.026 687.613 357.986 684.063 359.196C683.483 359.396 682.963 359.756 682.403 360.026C676.953 362.686 674.983 368.406 677.723 373.856C678.583 375.556 679.343 377.026 676.613 377.596C674.883 377.956 674.283 379.146 674.103 380.826C672.793 393.206 671.833 405.566 673.293 418.046C674.053 424.546 673.603 431.186 675.073 437.626C678.533 452.846 682.403 467.816 689.183 482.106C694.863 494.076 704.083 503.206 711.463 513.766C714.783 518.516 719.803 522.086 724.003 526.236C728.253 530.436 733.623 532.896 739.073 535.636C737.543 536.776 736.133 536.296 734.843 536.296L734.853 536.286ZM773.053 529.866C767.613 528.166 761.733 528.146 756.383 526.046C743.453 520.976 732.143 513.986 724.163 501.956C718.293 493.106 713.263 483.966 708.843 474.336C707.273 470.926 707.423 466.646 704.173 464.006C704.043 463.906 703.993 463.536 704.073 463.366C705.653 459.956 703.223 459.436 700.543 458.996C704.203 454.476 700.763 450.486 699.943 446.476C697.003 432.226 694.783 417.976 696.103 403.326C696.943 393.956 697.253 384.536 697.613 375.136C697.723 372.216 699.283 369.806 699.833 367.026C701.353 359.396 703.303 351.846 705.393 344.346C706.413 340.666 709.583 337.976 711.183 334.306C735.323 399.576 759.453 464.856 783.683 530.386C779.753 531.036 776.453 530.926 773.053 529.856V529.866ZM816.793 522.156C815.693 522.316 813.473 522.836 812.593 520.346C807.583 506.276 801.853 492.476 796.663 478.486C793.733 470.586 791.733 462.316 788.453 454.486C786.963 450.936 785.723 447.256 784.013 443.816C779.683 435.136 776.843 425.896 773.373 416.886C767.993 402.946 762.753 388.946 757.493 374.966C756.133 371.356 754.993 367.666 753.633 364.066C753.073 362.566 753.223 360.366 750.683 360.356C750.453 360.356 749.973 359.816 750.023 359.666C751.133 356.316 749.143 353.846 748.263 350.906C747.273 347.626 746.123 344.356 744.953 341.136C740.743 329.556 736.363 318.046 731.963 306.536C730.963 303.906 729.883 301.536 733.633 300.176C734.633 299.816 735.413 298.876 736.423 298.106C739.123 305.236 741.783 312.166 744.373 319.116C746.973 326.076 749.493 333.076 752.053 340.046C757.223 354.106 762.323 368.186 767.583 382.206C773.153 397.046 779.103 411.756 784.453 426.676C788.213 437.156 792.073 447.586 795.963 458.016C799.683 467.986 803.413 477.956 807.183 487.916C810.993 498.006 814.773 508.116 818.753 518.146C819.723 520.586 817.923 521.976 816.783 522.146L816.793 522.156ZM809.063 464.586C808.873 464.126 808.783 463.636 808.643 463.156C807.183 461.666 806.943 459.696 806.513 457.796C803.153 448.716 800.043 439.536 796.333 430.596C794.173 425.376 792.483 419.986 790.183 414.796C787.913 409.656 786.483 404.106 784.403 398.826C780.343 388.546 776.813 378.046 772.553 367.846C769.823 361.326 767.763 354.576 765.063 348.046C762.233 341.216 759.653 334.276 757.183 327.296C753.423 316.676 749.423 306.156 744.963 295.806C743.673 292.806 745.403 289.696 749.223 287.786C758.033 283.386 767.263 280.256 777.013 278.896C779.993 278.476 783.143 278.416 786.103 278.906C793.523 280.136 801.083 280.666 808.263 283.176C814.663 285.416 820.243 288.566 824.913 293.816C828.473 297.816 832.673 301.366 836.203 305.436C840.173 310.016 842.753 315.596 845.773 320.836C850.233 328.576 853.413 336.876 856.203 345.326C856.393 345.916 856.493 346.886 856.863 347.006C861.133 348.396 858.723 352.136 859.613 354.686C860.763 357.946 861.793 361.256 862.773 364.576C863.123 365.746 862.973 367.076 863.383 368.216C866.723 377.536 866.443 387.366 867.783 396.976C868.693 403.476 870.173 409.926 869.483 416.436C868.303 427.616 868.023 438.836 865.393 449.966C861.973 464.386 856.523 477.886 849.973 490.976C846.173 498.586 841.523 505.846 835.123 511.736C834.033 512.736 832.803 513.746 832.133 515.006C831.643 515.946 831.393 516.826 830.233 516.926C828.583 517.076 828.603 515.556 828.243 514.646C821.603 498.046 815.983 481.056 809.033 464.576L809.063 464.586ZM849.303 680.606V686.396C848.813 686.396 848.323 686.396 847.833 686.386C848.953 680.496 848.143 674.616 848.673 668.726C849.283 672.666 849.413 676.636 849.303 680.616V680.606ZM962.273 919.046C960.583 912.896 957.763 907.376 955.613 901.586C951.913 891.606 948.043 881.676 944.443 871.656C940.713 861.266 936.463 851.086 932.883 840.626C930.823 834.606 928.123 828.716 925.863 822.716C922.043 812.566 918.393 802.356 914.683 792.166C911.303 782.886 908.093 773.546 904.533 764.336C899.543 751.436 893.703 738.906 889.003 725.856C884.793 714.186 880.153 702.606 875.613 691.026C872.483 683.026 869.713 674.826 866.563 666.846C863.953 660.226 861.823 653.396 858.783 646.906C855.823 640.566 853.923 633.726 851.463 627.146C848.953 620.446 846.253 613.816 843.753 607.106C839.843 596.586 836.023 586.036 832.183 575.486C828.803 566.206 825.433 556.926 822.073 547.636C821.633 546.426 820.583 544.366 822.093 544.146C824.283 543.836 827.153 542.626 828.943 545.256C829.693 546.366 830.053 547.746 830.503 549.036C832.963 556.076 837.783 561.926 839.953 569.236C842.973 579.436 847.093 589.306 850.833 599.286C857.393 616.796 864.053 634.266 870.603 651.776C875.853 665.806 880.943 679.896 886.183 693.926C891.983 709.436 897.923 724.906 903.713 740.416C909.303 755.396 914.713 770.436 920.363 785.396C925.583 799.226 931.253 812.886 936.313 826.766C944.443 849.056 953.693 870.916 961.213 893.426C962.003 895.786 962.613 898.256 963.783 900.426C967.193 906.766 966.723 912.786 962.293 919.036L962.273 919.046ZM1045.6 528.806C1033.72 535.966 1021.16 537.126 1007.8 534.976C994.513 532.836 983.353 527.116 974.873 516.576C970.443 511.056 966.923 505.066 964.983 498.086C962.363 488.606 961.993 478.966 961.743 469.266C961.343 454.016 960.963 438.766 960.703 423.516C960.483 410.856 960.973 398.176 960.223 385.556C959.323 370.566 960.293 355.556 959.173 340.586C958.943 337.486 959.013 334.356 959.043 331.246C959.063 328.746 959.363 326.176 955.153 325.216C957.623 324.196 959.253 323.886 959.143 321.436C958.973 317.486 955.253 320.416 953.853 318.096C961.623 317.366 958.293 311.626 958.733 307.496C958.853 306.406 958.713 305.246 958.473 304.166C956.943 297.276 960.703 292.286 964.503 287.326C965.413 286.136 966.413 285.016 967.373 283.866C970.033 280.666 973.093 278.846 977.603 278.816C1002.33 278.636 1027.06 278.166 1051.79 277.756C1058.2 277.646 1062.87 281.726 1065.33 287.876C1070.85 301.666 1070.67 316.086 1070.85 330.476C1071.18 356.416 1071.1 382.376 1071.64 408.316C1072.03 427.446 1071.9 446.576 1072.29 465.706C1072.59 480.346 1070.13 494.366 1065.14 508.006C1061.61 517.686 1054.17 523.656 1045.62 528.806H1045.6ZM1194.16 294.136C1191.75 299.046 1192.35 304.916 1189.98 310.076C1186.72 317.176 1183.75 324.446 1181.31 331.866C1179.46 337.496 1177.11 342.926 1175.18 348.516C1172.49 356.306 1169.68 364.056 1166.79 371.776C1166.03 373.816 1167.05 375.736 1166.56 377.756C1165.5 377.786 1166.41 376.366 1165.42 376.406C1162.3 381.166 1161.41 386.996 1159.34 392.376C1156.23 400.456 1153.53 408.716 1150 416.606C1146.31 424.856 1144.14 433.606 1140.81 441.966C1135.89 454.296 1130.72 466.586 1127 479.296C1125.34 484.946 1122.05 489.886 1121.01 495.526C1119.68 502.756 1115.97 509.076 1113.9 516.036C1111.71 523.376 1108.41 530.566 1105.71 537.866C1105.19 539.276 1104.19 539.656 1102.79 539.606C1095.57 539.326 1088.33 539.426 1081.12 539.366C1074.58 539.316 1067.99 539.176 1061.95 539.636C1074.61 529.616 1081.68 516.086 1083.97 500.106C1086.72 480.936 1086.33 461.596 1086.39 442.286C1086.41 435.356 1086.85 428.366 1086.7 421.476C1086.47 410.546 1086.59 399.606 1086.37 388.676C1086.01 370.246 1086.06 351.806 1085.98 333.366C1085.98 331.456 1084.78 329.746 1085.87 327.546C1086.69 325.886 1084.01 326.706 1083.04 325.456C1086.21 323.616 1085.54 320.636 1085.62 317.586C1085.78 310.906 1084.07 303.946 1086.97 297.596C1089.92 291.136 1092.18 284.126 1098.32 279.566C1100.55 277.916 1102.95 277.206 1105.63 277.196C1121.48 277.106 1137.34 277.016 1153.19 276.956C1155.57 276.946 1157.93 276.486 1160.35 276.856C1161.01 276.956 1163.31 278.156 1162.52 275.316C1162.27 274.406 1163.06 275.286 1163.18 275.366C1163.69 275.696 1164.07 276.276 1164.61 276.506C1166.17 277.186 1168.02 276.626 1168.68 275.586C1169.29 274.626 1167.54 273.826 1166.9 272.896C1167.3 273.156 1167.86 273.326 1168.06 273.696C1170.37 277.916 1174.37 276.856 1178.01 276.946C1183.14 277.066 1188.26 277.216 1193.39 277.276C1194.82 277.296 1194.93 278.186 1195.09 279.216C1195.9 284.256 1196.64 289.086 1194.16 294.146V294.136ZM1202.04 252.216C1202.2 252.506 1202.37 252.786 1202.56 253.036C1202.33 252.826 1202.15 252.536 1202.04 252.216Z" fill="black"/>
</svg>
