<svg width="221" height="162" viewBox="0 0 221 162" fill="none" xmlns="http://www.w3.org/2000/svg">
<path d="M220.959 90.1016C220.833 89.7114 220.719 89.3179 220.577 88.9344C220.048 87.5077 219.504 86.0893 218.98 84.6608C218.717 83.9491 218.461 83.2357 218.083 82.5743C218.046 82.7216 218.016 82.869 217.991 83.0164C217.981 82.6999 217.968 82.3834 217.956 82.0652C217.695 80.9147 217.174 79.8413 216.746 78.7629C216.126 77.2004 215.447 75.6414 214.879 74.0639C214.406 72.746 213.596 71.5872 213.323 70.1587C213.11 69.0518 212.544 67.9851 212.178 66.8832C212.077 66.7643 212.166 66.5014 212.059 66.4897C211.445 66.4277 211.885 66.0727 211.86 65.8516C211.855 65.8114 211.843 65.7729 211.816 65.7394C211.771 65.6925 211.724 65.644 211.679 65.5971C211.441 65.5217 211.204 65.4547 210.949 65.4531C210.789 65.4531 210.581 65.4949 210.504 65.3091C210.43 65.1299 210.606 65.0126 210.697 64.8787C210.856 64.6442 211.234 64.5036 211.04 64.11C210.584 62.9361 210.128 61.7622 209.672 60.5883C209.502 60.1194 209.331 59.6505 209.157 59.1817C208.742 58.0613 208.327 56.9427 207.911 55.8241C207.87 55.7789 207.823 55.7253 207.764 55.7169C207.312 55.6549 207.133 55.4657 207.403 55.0219C207.513 54.8394 207.53 54.6334 207.413 54.4358C207.354 54.327 207.282 54.2248 207.237 54.1109C206.611 52.515 205.995 50.9158 205.366 49.3216C204.87 48.0623 204.457 46.7745 203.97 45.5118C203.606 44.5724 203.21 43.658 202.761 42.7604C202.634 42.3083 202.57 41.8411 202.339 41.4157C202.09 40.9569 201.941 40.4478 201.742 39.9672C201.23 38.7313 200.893 37.4352 200.321 36.2161C199.676 34.8446 199.208 33.3893 198.672 31.9676C197.941 30.0183 197.278 28.0406 196.476 26.1215C195.771 24.4369 195.231 22.6919 194.503 21.014C193.897 19.619 193.52 18.1253 192.911 16.7337C192.434 15.6452 192.109 14.5064 191.636 13.4146C190.835 11.5709 190.198 9.6551 189.532 7.75609C189.326 7.16831 188.984 6.61569 188.959 5.96929C188.86 6.0145 188.809 6.06976 188.78 6.1334C188.79 5.90733 188.788 5.68293 188.693 5.4669C188.604 5.4736 188.571 5.43006 188.579 5.34633C188.527 5.22744 188.246 5.2827 188.378 5.00136C188.512 4.72003 188.303 4.54252 188.039 4.44874C187.662 4.31477 187.287 4.16406 186.874 4.2863C186.859 4.3064 186.847 4.32482 186.837 4.34324C186.845 4.32817 186.854 4.31142 186.865 4.29468C186.922 3.72531 187.341 3.5612 187.808 3.45068C187.873 3.08394 187.754 2.75906 187.582 2.44758C187.265 2.17127 187.193 1.83468 187.327 1.44449C187.156 0.997373 186.986 0.550253 186.813 0.103132C186.785 0.0729891 186.756 0.017727 186.726 0.0160524C185.243 -0.012416 183.762 0.00600472 182.279 0.00433011C182.077 0.00433011 181.949 0.0780129 182.045 0.312458C182.182 0.96723 182.418 1.58014 182.696 2.19137C182.835 2.49615 183.021 2.79423 183.103 3.1325C183.365 4.21932 183.821 5.24921 184.256 6.26067C184.77 7.45801 185.123 8.70895 185.653 9.90294C186.162 11.045 186.557 12.2558 187.003 13.433C187.531 14.833 188.012 16.2581 188.621 17.6262C188.896 18.2425 188.963 18.9391 189.373 19.4968C190.824 20.1114 191.692 21.0893 191.431 22.7824C191.4 22.985 191.423 23.1977 191.428 23.4053C191.44 23.9613 191.349 24.5273 191.582 25.0632C191.644 25.2541 191.634 25.4483 191.716 25.6493C192.374 27.2753 192.983 28.9215 193.607 30.5592C194.198 32.1083 194.794 33.6573 195.4 35.2013C196.158 37.1321 196.848 39.0897 197.593 41.0256C197.757 41.4526 197.743 41.96 198.121 42.2966C198.205 42.6315 198.245 42.9832 198.48 43.2612C198.57 43.4001 198.66 43.5391 198.749 43.6781C198.843 44.3229 198.773 44.4083 198.16 44.4585C197.772 44.4903 197.373 44.3714 196.992 44.5305L196.225 44.5623C195.229 44.3496 194.228 44.4618 193.227 44.5188C192.787 44.6896 192.345 44.713 191.9 44.5322C191.167 44.6042 190.435 44.631 189.704 44.5221C189.664 44.5121 189.624 44.502 189.583 44.492C188.454 44.4669 187.326 44.3865 186.197 44.5221C185.551 44.4618 184.909 44.8085 184.261 44.5305C184.04 44.6176 183.807 44.5824 183.581 44.5824C181.541 44.5858 179.501 44.5807 177.459 44.5874C177.151 44.5874 176.834 44.5221 176.533 44.641C175.696 44.6327 174.858 44.7281 174.021 44.6327C173.606 44.5472 173.187 44.574 172.77 44.6159C172 44.7951 171.2 44.7197 170.435 44.7147C169.399 44.708 168.357 44.7398 167.319 44.6846C166.348 44.6327 165.377 44.8403 164.41 44.6611C162.987 44.7365 161.566 44.7532 160.145 44.6528C160.108 44.7147 160.073 44.7147 160.036 44.6528C158.49 44.7482 156.945 44.7398 155.398 44.6595C155.226 44.6595 155.053 44.6595 154.881 44.6578C154.429 44.7365 153.975 44.7449 153.523 44.6578C153.42 44.6578 153.316 44.6595 153.212 44.6611C152.372 44.7666 151.527 44.6879 150.685 44.7047C150.368 44.7114 150.127 44.7432 150.296 45.1535C150.635 45.6843 151.103 45.969 151.746 45.9991C152.074 46.0142 152.405 46.0812 152.703 46.2671C153.882 47.0039 154.509 48.079 154.501 49.4505C154.486 52.0227 154.714 54.5916 154.621 57.1621C154.586 58.1216 154.904 59.0309 154.846 59.9922C154.827 60.2969 154.66 60.5331 154.682 60.8479C154.742 61.7421 154.764 62.6381 154.665 63.539C154.578 64.3261 154.663 65.1282 154.635 65.9236C154.623 66.2452 154.934 66.5047 154.782 66.8212C154.593 67.2114 154.623 67.615 154.754 67.9851C154.945 68.521 154.983 68.9781 154.832 69.5776C154.63 70.3848 154.632 71.2857 154.678 72.1314C154.794 74.2431 154.752 76.3548 154.762 78.4665C154.767 79.3691 154.837 80.2499 155.023 81.1408C155.547 83.6661 156.921 85.6807 158.751 87.3904C159.591 88.1758 160.486 88.9328 161.529 89.5557C160.818 89.5624 160.17 89.5239 159.522 89.5859C157.977 89.7332 156.436 89.7282 154.889 89.5859C154.056 89.5105 153.217 89.5473 152.38 89.5674C151.974 89.5775 151.833 89.7902 151.912 90.187C152.037 90.8217 152.372 91.1282 153.023 91.16C153.965 91.2069 154.903 91.1248 155.838 91.0511C160.212 91.0712 164.587 91.0779 168.962 91.0461C170.092 91.0344 171.219 91.1298 172.338 91.2236C174.628 91.4162 176.916 91.5518 179.213 91.5619C180.654 91.5686 182.097 91.5016 183.538 91.6088C183.779 91.6272 183.996 91.5887 184.154 91.381C183.938 92.0341 183.774 92.7107 183.498 93.3387C182.828 94.8609 182.354 96.4551 181.722 97.989C181.168 99.3304 180.881 100.762 180.244 102.077C180.065 102.447 179.934 102.872 179.768 103.269C179.553 103.787 179.825 104.207 180.107 104.62C180.222 104.79 180.446 104.925 180.178 105.215C179.976 105.434 180.093 105.851 179.867 106.185C179.614 105.625 180.172 104.858 179.333 104.545C178.547 106.372 177.929 108.263 177.293 110.145C177.152 110.562 176.973 110.971 176.781 111.351C176.274 112.357 175.977 113.446 175.582 114.484C174.95 116.155 174.293 117.826 173.718 119.523C173.373 120.539 172.958 121.529 172.598 122.54C172.238 123.554 172.046 124.656 171.525 125.572C171.061 126.389 170.899 127.281 170.553 128.117C170.111 129.179 169.85 130.324 169.419 131.406C169.284 131.751 169.513 132.171 169.722 132.451C169.922 132.717 170.154 132.898 169.98 133.256C170.062 133.296 170.146 133.337 170.34 133.432C169.793 133.482 169.429 133.188 169.008 133.201C168.81 133.208 168.73 133.223 168.654 133.427C168.092 134.963 167.528 136.498 166.919 138.016C166.765 138.397 166.808 138.786 166.688 139.169C166.154 140.881 165.285 142.447 164.616 144.094C164.052 145.481 163.63 146.924 163.161 148.35C163.059 148.663 163.009 148.989 162.702 149.276C162.488 148.767 162.274 148.306 162.097 147.83C161.626 146.574 161.184 145.307 160.707 144.054C160.257 142.875 159.802 141.7 159.377 140.511C158.883 139.133 158.282 137.794 157.758 136.426C157.223 135.028 156.735 133.611 156.21 132.21C155.935 131.476 155.609 130.761 155.329 130.028C154.737 128.465 154.17 126.894 153.574 125.332C152.995 123.815 152.374 122.314 151.813 120.792C151.364 119.578 150.969 118.336 150.469 117.152C149.823 115.626 149.393 114.028 148.716 112.516C148.239 111.45 147.901 110.321 147.493 109.224C147.029 107.983 146.561 106.744 146.085 105.506C145.529 104.061 144.96 102.621 144.405 101.177C143.757 99.4962 143.109 97.8132 142.473 96.1269C141.931 94.6884 141.395 93.2466 140.885 91.7963C140.682 91.2219 140.878 91.0361 141.46 91.0562C143.102 91.1148 144.744 91.1566 146.386 91.1851C147.34 91.2019 148.296 91.1466 149.249 91.1951C149.89 91.2286 150.465 90.9222 151.096 90.9523C151.309 90.9624 151.312 90.8368 151.274 90.6609C151.165 90.1502 150.703 89.8136 150.06 89.8136C147.049 89.8119 144.036 89.8136 141.025 89.8136H140.342C146.418 83.4786 149.85 76.1622 149.309 67.3035C148.775 58.5604 144.98 51.4718 138.28 45.8819C138.317 45.8082 138.408 45.8283 138.486 45.8283C141.288 45.8283 144.092 45.8283 146.894 45.8317C147.017 45.8317 147.14 45.8652 147.264 45.8819C147.279 45.8668 147.307 45.8518 147.305 45.8384C147.265 44.8688 147.941 45.1652 148.43 45.2355C148.782 45.2858 148.877 45.7362 149.193 45.8853C149.306 45.8853 149.416 45.8853 149.528 45.8853C149.721 45.4951 149.1 45.2992 149.295 44.909C148.974 44.8638 148.653 44.7784 148.33 44.7784C147.026 44.7767 145.724 44.8085 144.42 44.8118C142.276 44.8169 140.132 44.852 137.989 44.7901C137.137 44.7649 136.257 44.842 135.425 44.5355C135.421 44.5355 135.42 44.5355 135.416 44.5355C134.231 44.7097 133.041 44.6862 131.85 44.6494C131.363 44.9626 130.842 44.6628 130.33 44.7264C129.14 44.8755 127.933 44.9341 126.731 44.8738C124.207 44.7449 121.68 44.8671 119.156 44.8068C117.991 44.7783 116.824 44.7784 115.657 44.7666C115.239 44.7633 114.822 44.7599 114.404 44.7566C113.892 44.9492 113.373 44.7566 112.856 44.7733C110.075 44.8671 107.288 44.698 104.51 44.9291C104.262 44.9492 103.988 44.8135 103.757 44.8705C102.923 45.0798 102.083 44.9291 101.248 44.9542C100.312 44.9827 99.3732 44.9374 98.4358 44.9307C96.978 44.9207 95.5201 44.8822 94.0639 44.924C93.309 44.9458 92.5609 44.6159 91.8077 44.8972C91.2637 44.9039 90.7214 44.9106 90.1774 44.919C90.0552 44.9508 89.923 44.6712 89.8092 44.9307C89.7138 44.8905 89.6183 44.8855 89.5296 44.9475C89.1296 44.7047 88.7045 44.8839 88.2894 44.8755C87.747 44.8169 87.2048 44.8068 86.6624 44.8805C86.5352 44.9709 86.408 44.9609 86.2808 44.8772C85.6531 44.8152 85.0272 44.7968 84.4012 44.8905C84.3309 44.8989 84.2622 44.9056 84.1919 44.914C83.899 45.8802 84.0279 46.0578 84.9886 46.0812C85.9829 46.1063 86.9788 45.9941 87.9713 46.1482C88.8467 46.0963 89.7171 46.2235 90.5908 46.2085C90.9005 46.2034 91.2235 46.247 91.4947 46.036C91.5365 45.9841 91.5616 45.9372 91.5733 45.8953C91.7541 46.1331 91.9114 46.1331 92.037 45.8233C92.1156 46.1515 92.3818 45.9941 92.5525 45.9924C94.4338 45.9908 96.3152 45.9673 98.1982 45.9573C99.4016 45.9506 100.178 46.5668 100.724 47.6503C101.459 49.1106 101.285 50.6412 101.288 52.1701C101.293 54.5916 101.082 57.008 101.167 59.4312C101.201 60.4091 101.147 61.3938 101.059 62.3701C100.977 63.2778 100.928 64.2222 101.037 65.0847C101.132 65.8449 100.844 66.5215 100.957 67.26C101.07 68.0102 100.972 68.7922 100.957 69.5609C100.923 71.3678 100.89 73.1747 100.844 74.9816C100.779 77.6024 100.724 80.2231 100.684 82.8439C100.674 83.4719 100.883 83.7498 101.596 84.0915C100.458 84.2221 100.644 84.9171 100.583 85.5233C100.436 86.9885 99.6075 88.0787 98.6216 89.1103C97.8182 89.9509 96.8792 90.0146 95.8281 89.9275C95.018 89.8605 94.1978 89.8772 93.3844 89.9024C92.9693 89.9157 92.9107 89.7701 92.9391 89.3949C93.0546 87.9129 93.2153 86.4309 93.078 84.9405C93.0479 84.6173 93.3743 84.3209 93.1567 83.9759C92.9609 83.9458 92.8705 84.073 92.7851 84.2288C92.2261 85.2453 91.3708 86.0173 90.6059 86.8629C90.4921 86.9885 90.3247 87.0924 90.1088 87.0857C86.9051 86.9986 83.7015 86.9182 80.4962 86.8412C79.6995 86.8211 78.9028 86.9333 78.2383 86.2634C77.3696 85.3876 76.6515 84.4498 76.3871 83.219C76.3302 82.9544 76.2733 82.6881 76.2415 82.4185C76.2046 82.102 76.1009 81.8492 75.6523 81.8006C76.2431 81.3602 76.2833 80.8344 76.2163 80.2482C76.1243 79.4595 76.1327 78.6657 76.1561 77.8703C76.1661 77.5337 76.2599 77.1552 75.9803 76.8538C75.9435 76.8153 75.9017 76.7232 75.9201 76.6997C76.516 75.8993 76.0808 74.9967 76.1678 74.1476C76.2599 73.2601 76.2414 72.3625 76.2348 71.4683C76.2247 69.9293 76.3117 68.3903 76.3369 66.8514C76.367 65.0244 76.3703 63.1957 76.3921 61.3687C76.4205 58.9506 76.4641 56.5324 76.4892 54.1126C76.5059 52.4849 76.5712 50.8522 76.4808 49.2278C76.4239 48.2063 76.8457 47.5029 77.5403 46.8967C77.9353 46.5518 78.26 46.0711 78.8542 46.0159C80.2251 45.8802 81.6009 45.9807 82.9734 45.9573C84.043 45.9405 84.043 45.9539 84.0279 44.8956C83.191 44.8453 82.3558 44.8286 81.5189 44.8889C81.2662 44.8872 81.0151 44.8855 80.7623 44.8838L79.3848 44.8805C79.2995 44.9374 79.2141 44.9374 79.1304 44.8805C78.4207 44.8805 77.711 44.8772 77.0013 44.8755C76.8356 44.9609 76.6666 44.9374 76.4959 44.8972C74.5292 44.8939 72.5641 44.8905 70.5975 44.8872C70.5138 44.8872 70.4284 44.8872 70.3447 44.8855C69.5078 44.8889 68.6726 44.8939 67.8357 44.8972C67.2917 44.909 66.7494 44.9207 66.2054 44.9324C65.9242 44.6963 65.6096 45.0195 65.3233 44.8788C64.8195 44.837 64.3174 44.8051 63.8153 44.8403C63.7684 44.8252 63.7165 44.8169 63.6529 44.8202C62.7491 44.8504 61.8435 44.8487 60.938 44.8587C59.7429 44.7901 58.5479 45.0982 57.3528 44.842C57.1101 44.9358 56.8573 44.8905 56.6079 44.8905C56.6079 44.8905 56.5812 44.8905 56.5644 44.8989C56.5477 44.9073 56.5276 44.914 56.5276 44.914C56.5276 44.914 54.5776 44.9944 53.6052 44.9994C47.4256 45.0262 41.2459 45.0228 35.068 45.0295C34.6964 45.0295 34.3265 45.0295 33.9549 45.0295C33.8043 45.0413 33.6537 45.0379 33.5013 45.0295C33.3758 45.2405 33.1666 45.1535 32.9942 45.1535C30.1554 45.1585 27.3167 45.1568 24.478 45.1585C24.1533 45.1585 23.8185 45.1719 24.1884 44.7181C24.324 45.0882 24.642 45.0228 24.9282 45.0228C25.032 45.0228 25.1358 45.0228 25.2395 45.0228C25.1023 45.0011 24.9985 44.9157 25.0136 44.6461C24.9968 43.998 25.4354 43.5073 25.6128 42.9262C25.8973 42.6901 25.8153 42.2865 26.0229 42.0152C25.9944 41.9215 26.0061 41.8428 26.1015 41.7942C26.3794 41.2684 26.4664 40.6806 26.6489 40.1229C26.843 39.7327 26.838 39.2622 27.1343 38.9122C27.5962 38.0732 27.9293 37.1823 28.1586 36.2529C28.4499 35.2682 28.8064 34.307 29.26 33.3843C29.4675 33.0326 29.4926 32.614 29.6751 32.2523C29.65 32.1836 29.6784 32.1451 29.7437 32.125C30.0132 31.698 30.2308 31.2509 30.2827 30.7401C30.6141 30.1004 30.8735 29.4322 31.0442 28.7306L31.0375 28.7423C31.4878 27.8631 31.7037 26.8969 32.0636 25.9842C32.487 24.5189 33.098 23.124 33.6436 21.7039C33.8478 21.4979 33.6838 21.4159 33.5164 21.4176C32.6979 21.4293 31.8778 21.3388 31.0626 21.4678C30.6291 22.0238 30.6626 22.769 30.3027 23.3534C30.1521 23.7084 30.0667 24.0869 29.9328 24.4469C29.8391 24.6696 29.7454 24.8924 29.6533 25.1151C29.501 25.594 29.2315 26.0211 29.0558 26.4899C28.8984 26.6524 29.1646 26.7696 29.0909 26.9454C28.7629 27.7225 28.4867 28.5229 28.1268 29.2849C27.8607 29.8509 27.5996 30.4136 27.4222 31.0131C27.3652 31.3748 27.161 31.6846 27.074 32.0363C26.8865 32.2221 26.9451 32.4432 26.9619 32.6709C26.9619 32.6927 26.9619 32.7145 26.9652 32.7362C26.9485 32.6843 26.9133 32.6441 26.848 32.6525C26.7292 32.6676 26.7393 32.8133 26.6706 32.8836C26.5484 33.2637 26.4246 33.6455 26.3024 34.0257C26.0262 34.3087 26.0061 34.6821 25.9459 35.0422C25.1458 37.0467 24.3474 39.0529 23.5473 41.0574C23.3699 42.0739 22.7138 42.9195 22.528 43.9327C22.3908 44.2257 22.1999 44.497 22.1514 44.8269C21.8736 45.1099 21.5589 45.0547 21.2425 44.9927C20.9262 45.3159 20.5613 45.192 20.1897 45.0228C20.5061 44.9977 20.8341 45.0697 21.1438 44.9743C21.1003 44.9659 21.0584 44.9592 21.0149 44.9525C20.9546 44.6494 21.0835 44.3815 21.1756 44.1102C21.6961 42.5796 22.2384 41.0557 22.7423 39.5201C23.0536 38.5723 23.4703 37.6696 23.775 36.7168C24.242 35.2599 24.8495 33.8498 25.3667 32.408C26.1501 30.221 26.9351 28.0373 27.7636 25.8653C28.6474 23.551 29.4441 21.2049 30.2743 18.8721C30.7078 17.6564 31.1363 16.4389 31.5614 15.2215C32.1506 13.5385 32.7247 11.8505 33.3239 10.1709C33.667 9.21133 33.9784 8.23336 34.3566 7.2939C34.6596 6.53865 34.7868 5.71642 35.2203 5.01476C35.2253 4.715 35.5568 4.55592 35.5484 4.25114C35.6538 3.1325 36.233 2.16458 36.551 1.11125C36.7502 0.816515 36.6213 0.685896 36.3167 0.689245C35.0262 0.702642 33.734 0.639007 32.4452 0.722737C32.1339 1.08948 32.174 1.59353 31.9447 1.99544C31.4577 2.84782 31.1714 3.81574 30.912 4.72338C30.609 5.78173 30.1939 6.80492 29.8341 7.82643C29.2616 9.44578 28.803 11.112 28.1017 12.6928C27.7167 13.5603 27.6883 14.5918 27.2765 15.4409C26.5953 16.8442 26.1702 18.3379 25.586 19.7714C24.7391 21.853 24.0428 23.9965 23.2812 26.1132C23.1774 26.4246 22.9883 26.7026 22.9147 27.0258C22.9849 27.2067 22.6837 27.2904 22.7958 27.4813C22.8628 28.0189 23.0201 28.543 22.9933 29.0923C22.99 29.1693 23.0502 29.2564 22.9983 29.32C22.6134 29.7839 22.5648 29.8006 22.6636 30.0418C22.8326 30.4554 22.5782 30.5525 22.2887 30.6614C22.0393 30.7552 21.7346 30.6647 21.5271 30.8908C21.0735 31.9107 20.6483 32.9405 20.3722 34.0257C20.3805 34.6001 20.2801 35.1309 19.7629 35.4876C19.4867 36.2563 19.2775 37.0584 18.9177 37.7869C18.5126 38.6074 18.3871 39.5318 17.9184 40.3138C17.587 40.8665 17.5267 41.5095 17.2238 42.0638C17.0982 42.5712 17.4347 43.226 16.7518 43.5576C16.638 43.6111 16.6664 43.73 16.6262 43.8154C16.4271 44.2391 16.3266 44.7817 15.8061 44.924C15.2504 45.0748 14.6646 45.1016 14.0971 45.2121C13.4444 45.3377 12.6493 45.3846 12.1907 45.6994C11.2986 46.3106 10.2307 46.669 9.48085 47.4879C9.17957 47.4477 8.96365 47.6135 8.76447 47.801C7.93595 48.5881 7.09738 49.3668 6.33413 50.2192C5.45037 51.0766 4.90974 52.1717 4.24023 53.1832C3.35814 54.5145 2.67691 55.9279 2.05761 57.3848C1.77642 57.9659 2.02246 58.49 2.27018 58.9891C2.51623 59.4848 2.36224 59.7594 1.90195 59.9754C1.60569 60.1144 1.26089 60.1831 1.06004 60.4845C0.748711 60.9551 0.745363 61.4976 0.693476 62.0285C0.688455 62.4438 1.22407 62.9211 0.554552 63.2627C0.455799 63.3849 0.340307 63.4687 0.293441 63.6562C0.167908 64.1603 0.254944 64.671 0.179624 65.1717C0.0406998 65.8064 0.201383 66.4562 0.104304 67.0875C-0.0446632 68.0487 -0.046337 68.9965 0.179624 69.9444C0.0808707 70.7113 0.261639 71.4733 0.264987 72.2419C0.270008 73.0993 0.504338 74.002 0.733647 74.8476C1.20398 76.5725 1.61573 78.3275 2.40911 79.9535C2.78906 80.7322 3.00832 81.6181 3.50544 82.3047C4.67541 83.9207 5.78513 85.5886 7.23798 86.9885C8.29414 88.0067 9.25489 89.127 10.5973 89.8002C10.768 90.038 11.0258 90.1502 11.2785 90.2724C11.486 90.4282 11.7287 90.4935 11.9798 90.5387C12.2811 90.6978 12.6008 90.7313 12.9372 90.733C13.4745 90.738 14.0135 90.6693 14.5491 90.7765C14.9123 91.0227 15.3458 90.9674 15.7475 91.0562C15.9684 91.1466 16.2011 91.1014 16.4271 91.1014C18.8842 91.1047 21.3413 91.1014 23.7984 91.1047C24.026 91.1047 24.257 91.0712 24.4796 91.1566C25.8605 91.1566 27.2414 91.1566 28.6239 91.155C28.9152 91.1081 29.2047 91.0578 29.2332 90.6141C29.4374 90.7849 29.1277 90.9708 29.1897 91.1449C29.4625 91.1014 29.7671 91.1164 29.9764 90.954C29.9663 91.0243 29.9847 91.093 30.0785 91.16C30.532 91.1416 30.9856 91.1483 31.4392 91.1566C32.1908 91.1684 32.954 91.2521 33.6955 91.0361C33.9064 91.1416 34.1357 91.1349 34.3617 91.1365C35.0379 91.1432 35.7141 91.1449 36.392 91.1499C36.6949 91.0947 37.0029 91.0947 37.3092 91.1064C37.7327 91.0796 38.1578 91.1198 38.5813 91.1064C39.7144 91.0679 40.8493 91.175 41.9807 91.0478C42.0226 91.0478 42.0661 91.0495 42.1079 91.0511C42.5247 91.1432 42.9432 91.1315 43.3616 91.0578C43.698 91.0578 44.0328 91.0578 44.3692 91.0578C45.1626 91.1416 45.956 91.1215 46.7494 91.0695C46.7929 91.0645 46.8364 91.0595 46.8799 91.0545C48.6357 91.1382 50.3932 91.1365 52.149 91.0545C52.1925 91.0578 52.2343 91.0595 52.2779 91.0629C53.1717 91.1566 54.0688 91.0763 54.9626 91.1047C56.0439 91.1382 57.1268 91.0344 58.2064 91.1583C58.4123 91.1516 58.6182 91.1533 58.8224 91.1349C59.8149 91.0411 60.8242 91.3258 61.8067 91.016C62.6754 91.2755 63.5642 91.1081 64.4429 91.1248C64.4446 91.1298 64.4463 91.1365 64.448 91.1416C64.5484 91.1416 64.6505 91.1416 64.7509 91.1416C64.776 91.1432 64.8028 91.1449 64.8279 91.1466C64.8513 91.1483 64.8698 91.1466 64.8848 91.1399C65.8255 91.1349 66.7662 91.1298 67.7068 91.1248C68.7128 91.0662 69.717 91.0595 70.7213 91.1282C71.8076 91.1282 72.8956 91.1282 73.9818 91.1265C74.5677 91.1265 75.1552 91.1248 75.741 91.1231C76.1594 91.1231 76.5762 91.1231 76.9947 91.1248C77.4549 91.1248 77.9169 91.1248 78.3772 91.1248C80.2184 91.1248 82.0579 91.1248 83.899 91.1231C85.9009 91.1097 87.9044 91.083 89.9062 91.0846C93.6723 91.0863 97.4399 91.1097 101.206 91.1148C104.035 91.1181 106.863 91.1081 109.692 91.1047C109.859 91.0478 110.03 91.0411 110.201 91.0461C110.974 90.9808 111.751 91.0294 112.522 91.0461C112.626 91.0461 112.732 91.0428 112.835 91.0411C113.251 90.9875 113.651 90.7346 114.072 90.9758C115.786 90.9674 117.502 90.9775 119.216 90.9473C121.293 90.9088 123.362 91.1231 125.436 91.1131C126.011 90.887 126.609 91.0009 127.2 91.0059C127.869 90.9306 128.541 90.9557 129.21 90.9992C130.121 91.0093 131.033 91.0545 131.943 91.0176C132.509 90.9942 132.725 91.2136 132.708 91.7428C133.073 92.1698 133.209 92.7375 133.351 93.2281C133.679 94.3535 134.164 95.4185 134.58 96.4986C135.036 97.6893 135.445 98.9034 135.949 100.081C136.448 101.246 136.883 102.455 137.296 103.664C137.651 104.703 138.1 105.719 138.505 106.746C138.786 107.454 138.995 108.192 139.373 108.861C139.49 109.182 139.609 109.502 139.726 109.824C139.921 110.435 140.086 111.059 140.317 111.657C140.804 112.922 141.372 114.152 141.825 115.432C142.463 117.232 143.233 118.985 143.903 120.774C144.907 123.455 145.858 126.156 146.865 128.835C147.151 129.596 147.351 130.403 147.727 131.111C148.127 131.865 148.356 132.68 148.646 133.457C149.083 134.631 149.518 135.815 149.975 136.981C150.248 137.676 150.586 138.369 150.81 139.074C151.289 140.576 151.898 142.031 152.481 143.485C153.296 145.524 153.992 147.608 154.826 149.637C155.547 151.394 156.207 153.176 156.868 154.956C157.366 156.297 157.887 157.63 158.386 158.972C158.751 159.95 159.072 160.969 159.711 161.828C160.473 162.178 160.773 162.013 160.952 161.147C161.201 160.253 161.616 159.424 161.966 158.57C163.069 155.874 164.185 153.184 165.299 150.493C166.048 149.106 166.494 147.596 167.011 146.121C167.575 144.515 168.167 142.915 168.666 141.288C168.978 140.276 169.461 139.33 169.737 138.309C169.734 138.312 169.732 138.317 169.729 138.32C170.082 137.316 170.424 136.306 170.794 135.306C170.949 134.887 170.943 134.412 171.239 134.045C171.418 133.037 171.82 132.099 172.148 131.138C172.625 129.741 173.132 128.355 173.626 126.963C173.739 126.263 174.084 125.649 174.349 125.004C174.652 124.156 174.955 123.311 175.258 122.463C175.246 122.37 175.251 122.284 175.355 122.241C175.49 121.901 175.627 121.561 175.763 121.221C175.987 120.41 176.275 119.622 176.605 118.848C176.761 118.439 176.916 118.031 177.072 117.62C177.09 117.565 177.11 117.51 177.134 117.456V117.46C177.134 117.46 177.134 117.458 177.134 117.456C177.134 117.456 177.134 117.456 177.134 117.458C177.363 116.919 177.46 116.328 177.773 115.822C177.777 115.584 177.904 115.402 178.039 115.221C178.085 114.77 178.239 114.352 178.401 113.933C178.767 112.977 179.134 112.019 179.499 111.063C179.701 110.609 179.73 110.088 180.036 109.674C180.063 109.211 180.302 108.824 180.498 108.424C180.681 108.109 180.612 107.688 180.91 107.42C181.134 106.97 180.992 106.391 181.409 106.007C181.528 105.682 181.579 105.331 181.804 105.049C181.837 104.577 182.031 104.17 182.299 103.79C182.303 103.507 182.403 103.254 182.545 103.016C182.688 102.316 183.016 101.682 183.248 101.013C183.278 100.479 183.568 100.044 183.792 99.5849C183.842 99.4393 183.893 99.2919 183.943 99.1462C183.968 98.7761 184.201 98.478 184.296 98.1314C184.296 98.1314 184.296 98.1314 184.294 98.1314C184.39 97.8434 184.485 97.5553 184.581 97.2673C184.934 97.1886 184.701 96.8888 184.793 96.7113C184.842 96.3563 185.056 96.0699 185.197 95.7534C185.665 94.7269 186.099 93.6886 186.305 92.5717C186.688 91.7662 186.748 90.8368 187.27 90.0849C187.568 89.8002 187.464 89.3564 187.682 89.0399C187.69 88.9746 187.699 88.9093 187.707 88.8457C187.918 88.5342 187.97 88.1675 188.067 87.8158C188.044 87.7187 188.045 87.6282 188.146 87.5713C188.43 87.2967 188.455 86.9149 188.562 86.5665L188.557 86.5783C188.716 86.1646 188.839 85.7393 188.946 85.3089C189.011 85.185 189.076 85.0611 189.143 84.9371C189.436 84.6072 189.334 84.1735 189.446 83.7967C189.737 83.0482 190.02 82.2946 190.32 81.5494C190.62 80.8025 190.797 80.0071 191.175 79.2904C191.408 78.9856 191.435 78.6021 191.579 78.2622L191.555 78.2153L191.585 78.1734C191.778 77.9021 191.759 77.5471 191.944 77.2725C192.223 76.9509 192.183 76.5206 192.323 76.1521C192.66 75.844 192.467 75.355 192.713 75.0151C192.625 74.7689 192.889 74.6768 192.946 74.4826C193.375 73.0474 193.888 71.6407 194.437 70.2458C194.725 69.9193 194.729 69.4906 194.843 69.102C195.229 67.9968 195.537 66.8547 196.039 65.8047C196.25 65.3626 196.22 64.8435 196.553 64.465C196.953 64.1218 196.834 63.6093 196.97 63.1806C197.164 62.4036 197.531 61.6919 197.822 60.9534C198.17 60.6352 198.135 60.1847 198.224 59.7778C198.334 59.3123 198.428 58.8384 198.746 58.4549C198.988 58.1082 199.007 57.6946 199.096 57.3027C199.415 56.8807 199.484 56.3683 199.606 55.876C199.732 55.6047 199.73 55.2798 199.951 55.047C200.344 54.7071 200.256 54.2097 200.364 53.776C200.6 53.5198 200.574 53.1732 200.672 52.8701C200.806 52.4631 201.014 52.3426 201.446 52.4966C201.787 52.6189 202.006 52.8198 202.142 53.1263C202.343 53.5767 202.478 54.0557 202.647 54.5179C203.206 56.0434 203.695 57.5925 204.293 59.108C204.86 60.5498 205.222 62.0704 205.791 63.5155C206.669 65.7445 207.362 68.037 208.186 70.2843C208.457 71.0278 208.706 71.7797 208.986 72.5182C209.448 73.7357 209.893 74.9598 210.327 76.189C210.569 76.8773 210.794 77.5756 210.986 78.2789C211.125 78.7813 211.455 79.2167 211.567 79.6973C211.91 81.1676 212.539 82.5307 213.013 83.9508C213.353 84.9706 213.892 85.9754 213.309 87.084C213.097 87.3754 213.135 87.7672 212.926 88.0586C212.496 88.5677 211.99 88.9579 211.323 89.1019C210.862 89.2493 210.379 89.0717 209.917 89.2024C209.85 89.2141 209.784 89.2241 209.717 89.2359C209.657 89.2392 209.624 89.271 209.614 89.3246C209.399 89.2426 209.175 89.2861 208.956 89.2861C206.259 89.2828 203.563 89.2844 200.865 89.2844C199.882 89.2844 198.898 89.3079 197.917 89.2727C197.492 89.2576 197.348 89.4603 197.32 89.8069C197.301 90.0246 197.203 90.2641 197.392 90.4633L197.442 90.4483L197.485 90.4784C197.862 90.5789 198.239 90.5806 198.615 90.4784C199.184 90.4734 199.753 90.4684 200.321 90.4617C200.81 90.3813 201.298 90.3763 201.785 90.465C202.055 90.455 202.324 90.4382 202.594 90.4366C205.163 90.4299 207.731 90.4265 210.3 90.4232C211.803 90.4399 213.304 90.4583 214.807 90.4751C215.318 90.609 215.838 90.5019 216.352 90.5337C216.475 90.5069 216.558 90.4483 216.622 90.3712C216.642 90.4315 216.694 90.4868 216.803 90.5354C217.85 90.4868 218.903 90.6375 219.948 90.4583L219.936 90.4617C220.189 90.3562 220.453 90.4299 220.713 90.4114C220.918 90.3964 221.091 90.3696 220.947 90.0983L220.959 90.1016ZM187.185 4.77529C187.11 4.67481 186.832 4.69826 186.787 4.55424C186.84 4.66979 187.08 4.66979 187.175 4.75687C187.203 4.78366 187.23 4.77027 187.232 4.74347C187.237 4.65974 187.294 4.81883 187.183 4.77529H187.185ZM188.782 6.71616C188.768 6.60899 188.767 6.50349 188.77 6.39799C188.787 6.50516 188.81 6.61569 188.782 6.71616ZM26.9803 34.2986C26.9786 33.8716 26.9786 33.4463 26.9736 33.0192C26.9886 33.4463 26.9819 33.8716 26.9803 34.2986ZM27.3318 36.3182C27.5778 36.8591 27.1041 37.2661 27.0204 37.7483C26.9568 38.1151 26.6472 38.4902 26.5233 38.9005C26.5099 38.944 26.3827 38.9524 26.3074 38.9775C26.6623 38.0967 26.8999 37.1706 27.3318 36.3182ZM25.822 40.1882C25.7986 40.7978 25.6597 41.3688 25.2747 41.8595C25.4437 41.2985 25.5224 40.7074 25.822 40.1882ZM25.196 42.0806C25.0889 42.3971 25.2295 42.8258 24.7859 42.9915C24.8579 42.6583 24.95 42.3351 25.196 42.0806ZM3.44351 72.2738C3.03008 70.1637 3.27445 68.037 3.34977 65.9203C3.38827 64.8284 3.36986 63.7081 3.58243 62.6514C3.78663 61.6299 4.21679 60.6335 4.34568 59.5936C4.5231 58.1618 5.35497 56.9812 5.68805 55.6181C5.71651 55.4975 5.76672 55.3736 5.84037 55.2765C7.03377 53.7057 7.90247 51.9088 9.18291 50.405C10.055 49.3818 11.24 48.8242 12.5054 48.4357C12.9238 48.3068 13.3423 48.1745 13.7691 48.079C14.0369 48.0187 14.2762 48.017 14.1072 48.4491C13.7523 49.3467 13.4912 50.2811 13.1046 51.1636C12.4401 52.6808 11.866 54.2298 11.2969 55.7839C10.7412 57.3044 10.1386 58.8099 9.61643 60.3422C7.92088 65.3158 5.92908 70.1755 4.04607 75.0921C3.70462 74.1677 3.6293 73.2099 3.44518 72.2754L3.44351 72.2738ZM7.41205 82.8573C6.41447 82.174 6.13663 81.3635 6.51657 80.3688C7.9326 76.6512 9.35364 72.9335 10.7713 69.2159C12.0099 65.9655 13.2402 62.7134 14.4888 59.4663C15.2085 57.5958 16.0203 55.7571 16.6748 53.8631C17.187 52.3794 17.8766 50.9644 18.3168 49.4539C18.3954 49.1842 18.5929 48.9515 18.695 48.6752C18.8959 48.1343 19.3244 48.3185 19.696 48.4223C20.1579 48.5512 19.8801 48.8276 19.7997 49.062C19.4566 50.0584 19.2122 51.1033 18.7536 52.0428C18.0523 53.483 17.6188 55.0169 17.0296 56.4939C16.3568 58.1853 15.8697 59.947 15.1148 61.6115C14.8319 62.2345 14.7114 62.9244 14.3733 63.5306C14.2009 63.8404 14.5491 63.8354 14.6612 63.9744C14.2846 64.2474 14.1206 64.6225 14.0687 65.083C13.9817 65.8449 13.6569 66.5499 13.4795 67.2918C13.4594 67.3152 13.4377 67.337 13.4176 67.3605C13.19 67.2399 13.0996 67.3521 13.0058 67.5597C11.9062 69.9661 10.999 72.4412 10.1202 74.9364C9.59132 76.4368 9.11764 77.9641 8.51173 79.4461C8.06817 80.5329 7.52419 81.6147 7.4154 82.8573H7.41205ZM15.8329 64.944C15.396 64.7748 15.2018 64.4299 15.1315 63.9911C15.4412 64.2524 15.6169 64.6141 15.8329 64.944ZM15.9266 88.1206C15.3491 88.0938 14.7717 88.2127 14.1875 88.0821C12.5807 87.722 11.1446 87.0421 9.93444 85.9151C8.7243 84.7898 8.96532 85.2252 9.50261 83.8152C10.2625 81.824 11.1128 79.8681 11.9279 77.8971C12.03 77.6476 12.1455 77.4048 12.256 77.1586C12.7732 75.7385 13.2887 74.3168 13.8076 72.8967C14.3265 71.4766 14.8487 70.0566 15.3726 68.6365C15.4261 68.4942 15.4797 68.3049 15.3826 68.2178C15.0211 67.893 15.6872 68.099 15.4312 67.826C14.7784 67.9365 14.1239 67.5865 13.4343 67.3671C13.4243 67.3722 13.4142 67.3755 13.4042 67.3789L13.4159 67.3605C13.4226 67.3621 13.4276 67.3638 13.4343 67.3655C13.9549 67.1293 14.5122 66.9753 15.0596 66.8581C15.7425 66.7107 15.9952 66.5081 15.9852 65.7729C15.9852 65.7093 16.0069 65.6523 16.0488 65.6021C16.2346 65.8265 16.3685 65.9755 16.5258 65.5468C17.3225 63.3782 18.1159 61.2113 18.8122 59.0058C19.5503 56.6681 20.4609 54.3822 21.2978 52.0763C21.3246 52.0026 21.3865 51.9423 21.4317 51.8753C21.7028 51.1117 21.984 50.3514 22.2418 49.5828C22.3489 49.2629 22.5062 49.4421 22.672 49.494C24.8646 50.1756 26.1685 51.8201 27.2631 53.7057C28.7311 56.236 29.2282 59.0443 29.66 61.8795C29.9596 63.8454 30.0483 65.8299 30.0082 67.8009C29.9697 69.6882 29.8491 71.5821 29.5998 73.4694C29.2198 76.3263 28.1586 78.9404 26.8447 81.4339C25.7701 83.4735 24.0193 84.974 22.1062 86.2668C20.2316 87.5311 18.2063 88.2244 15.9283 88.1189L15.9266 88.1206ZM41.5556 49.6732C40.9832 50.2995 40.9279 51.0648 40.9279 51.8435C40.9329 54.8327 40.7605 57.8185 40.7003 60.806C40.6501 63.2711 40.5128 65.7344 40.4727 68.1994C40.4593 69.0267 40.8995 69.8673 40.3756 70.6745C40.4392 72.1331 40.5363 73.585 40.4676 75.0519C40.404 76.3832 40.4844 77.7296 40.3773 79.0559C40.2383 80.769 40.2852 82.4838 40.2618 84.1936C40.2333 86.2266 39.7747 87.9531 37.9335 89.0751C37.8448 89.1287 37.7595 89.1907 37.6774 89.256C37.3243 89.5339 36.9376 89.678 36.5091 89.7198C36.0455 89.9174 35.5383 89.9978 34.9626 89.9509C34.0001 89.8739 33.026 89.9141 32.0569 89.9308C32.0485 89.9626 32.0452 89.9928 32.0468 90.0196C32.005 89.9861 31.9598 89.9593 31.9146 89.9325C31.8225 89.9325 31.7305 89.9359 31.6401 89.9359C31.4945 89.9359 31.2886 89.8471 31.2317 90.0966C30.6593 89.8823 30.0734 89.8823 29.4826 89.9995C29.0039 89.7902 28.5453 90.0531 28.0766 90.0547C26.2773 90.0581 24.4796 90.0564 22.6803 90.0547C22.6284 90.0547 22.5749 90.028 22.3975 89.9794C23.6026 89.3531 24.5432 88.5392 25.5308 87.7856C27.5594 86.2383 29.116 84.3259 30.3195 82.0752C31.2317 80.3722 31.8945 78.5686 32.564 76.7768C33.3725 74.6165 33.8093 72.3525 33.8378 70.0164C33.8595 68.1994 33.9449 66.3825 33.9114 64.5622C33.8729 62.4706 33.6286 60.4041 33.1114 58.3829C32.5741 56.2846 31.8025 54.2751 30.6442 52.4229C29.8224 51.1084 28.8532 49.9177 27.8423 48.7488C27.0774 47.8647 26.135 47.2149 25.2345 46.5032C25.1224 46.4144 24.9968 46.329 24.9952 46.1482C25.1977 45.9958 25.4354 46.0778 25.653 46.0778C29.1662 46.0728 32.6812 46.0979 36.1945 46.0611C36.5108 46.0577 36.8104 46.0963 37.0966 46.1649C38.6449 46.2302 40.1128 46.7778 40.6735 48.5311C40.7421 48.7455 40.8543 48.9297 41.035 49.0319C41.1572 49.0235 41.251 49.0536 41.2928 49.1122C41.3062 49.1122 41.3179 49.1173 41.333 49.1173C41.8067 49.1424 41.8217 49.3835 41.5606 49.6682L41.5556 49.6732ZM46.4615 75.5694C46.4615 79.277 46.4615 82.9862 46.4615 86.6938C46.4615 86.7926 46.4464 86.8914 46.433 87.0354C45.6329 86.6469 45.1392 86.2249 45.1459 85.2101C45.181 79.4762 45.1291 73.7407 45.1141 68.0069C45.1141 67.7674 44.9802 67.3923 45.2195 67.3152C45.5593 67.2047 45.9694 67.2248 46.3292 67.2951C46.582 67.3437 46.4564 67.6569 46.4564 67.8478C46.4648 70.4216 46.4615 72.9955 46.4615 75.5711V75.5694ZM46.4531 48.3218C46.4648 51.1033 46.4615 53.8832 46.4615 56.6647C46.4615 59.4462 46.4414 62.2261 46.4782 65.0076C46.4866 65.6239 46.1987 65.6172 45.7618 65.5988C45.3802 65.5837 45.089 65.6724 45.104 65.0411C45.1526 62.9596 45.0371 60.8747 45.0923 58.7931C45.181 55.4506 45.171 52.1081 45.1526 48.7656C45.1492 48.0338 45.5794 47.6838 46.2874 47.8261C46.6188 47.8931 46.4514 48.1577 46.4531 48.3218ZM50.517 48.0773C51.451 47.8881 52.3582 47.9919 53.2185 48.2247C54.4839 48.568 55.8765 48.6233 56.9176 49.5912C57.7779 50.3916 58.7738 51.0899 59.3379 52.1433C60.0827 53.5315 60.7924 54.9382 60.6401 56.6212C60.5798 57.2709 60.6535 57.9441 60.5815 58.6039C60.3639 60.6001 59.6241 62.3282 57.9838 63.5825C57.4047 64.0246 56.8607 64.5069 56.2247 64.8837C54.6061 65.8449 52.8754 66.2066 51.0142 66.0224C49.9814 65.9203 49.9814 65.9287 49.9814 64.8938C49.9814 62.278 49.9814 59.6623 49.9814 57.0465C49.9814 54.2432 49.9881 51.4383 49.9731 48.635C49.9714 48.2063 50.0952 48.1627 50.5187 48.0756L50.517 48.0773ZM55.1752 87.6366C54.4923 87.8074 53.7926 87.9146 53.1114 88.0938C52.467 88.2646 51.8226 88.139 51.1882 88.1172C50.8501 88.1055 50.517 87.8627 50.122 87.8493C49.8643 87.8392 49.9865 87.501 49.9848 87.3134C49.9781 83.7163 49.9798 80.1193 49.9781 76.5222C49.9781 73.7926 49.9831 71.0647 49.9714 68.3351C49.9697 67.9114 49.9982 67.7305 50.5438 67.6552C52.5925 67.3722 54.5576 67.6585 56.4858 68.3133C57.2825 68.5829 57.885 69.1824 58.5328 69.6882C59.3697 70.3413 59.8718 71.2623 60.374 72.1783C60.5715 72.5367 60.6535 73.0374 61.2159 73.0809C61.4117 73.096 61.3866 73.2718 61.2828 73.3438C60.9732 73.5615 61.1155 73.8077 61.1841 74.0673C61.318 74.5696 61.5088 75.0653 61.4636 75.5962C61.4167 76.1438 61.6008 76.4335 62.1984 76.3682C62.3775 76.3481 62.57 76.3899 62.7424 76.5557C62.6788 76.621 62.657 76.6663 62.6235 76.6746C61.9189 76.8572 61.7147 77.2658 61.7348 78.0227C61.7783 79.6772 61.4536 81.2781 60.6686 82.7752C60.4593 83.1755 60.1062 83.579 60.2267 84.1317C60.2384 84.1852 59.7781 84.336 59.6325 84.5604C59.2174 85.195 58.5864 85.617 58.0792 86.1596C57.2842 87.007 56.2514 87.367 55.1735 87.6349L55.1752 87.6366ZM71.5615 57.8068C71.1531 57.7599 71.2084 58.0463 71.2084 58.2941C71.2101 59.3809 71.205 60.4678 71.2184 61.5529C71.2234 61.985 71.0092 62.4857 71.5381 62.7904C71.6185 62.8373 71.6118 62.9713 71.5465 63.0081C70.9422 63.3498 71.2201 63.9409 71.2117 64.393C71.1699 66.709 71.1967 69.0267 71.2034 71.3443C71.2067 72.4596 71.1381 73.5732 71.1816 74.6902C71.2218 75.7234 71.1766 76.76 71.1498 77.7966C71.1146 79.1279 70.9958 80.4592 71.0326 81.7872C71.0611 82.802 71.0795 83.8152 71.0092 84.8233C70.8887 86.5096 69.7723 87.6567 68.6609 88.7619C67.7754 89.6428 66.6925 90.0765 65.4171 89.9543C65.4372 89.909 65.4573 89.8638 65.4757 89.8169C64.5517 89.8169 63.6747 89.8237 62.7959 89.8119C62.5783 89.8086 62.3591 89.9626 62.2017 89.9308C62.1398 89.9174 62.0779 89.909 62.0159 89.899C61.9557 89.8605 61.8754 89.8371 61.7565 89.8438C61.7214 89.8454 61.6879 89.8454 61.6527 89.8471C60.9347 89.765 60.2166 89.8002 59.4986 89.8622C59.3781 89.8705 59.2576 89.8806 59.137 89.8957C58.7337 89.8772 58.3319 89.8588 57.7528 89.832C58.7085 89.1136 59.5069 88.4823 60.2752 87.8124C61.3531 86.8747 62.3072 85.8264 63.1842 84.7044C64.4931 83.0314 64.7526 81.0487 64.9082 79.0174C65.0103 77.6827 64.9668 76.3665 64.6873 75.0603C64.4095 73.7608 63.7851 72.5836 63.3332 71.3443C63.1324 70.7951 62.8461 70.3346 62.4947 69.8623C61.2795 68.2296 59.7681 67.0439 57.8382 66.3791C57.9972 65.8617 58.5462 66.076 58.8759 65.8483C59.8969 65.1466 60.8794 64.4031 61.5657 63.3581C62.1147 62.5225 62.8244 61.7991 63.2211 60.8512C63.7667 59.5467 63.9408 58.1987 64.0094 56.7953C64.0831 55.2915 64.0161 53.8179 63.5742 52.3878C63.4085 51.8519 63.3198 51.1988 62.6419 50.951C61.6628 50.5943 61.6527 50.5775 62.1197 49.6582C62.2469 49.4086 62.1716 49.2563 62.0159 49.1089C61.8871 48.9866 61.8201 48.7338 61.5205 48.9113C61.1272 49.1441 60.9849 48.9565 61.0619 48.5412C61.1288 48.1795 61.1071 47.8647 60.7556 47.6168C59.8735 46.9922 58.8977 46.5434 57.9336 46.0711C57.9336 45.9958 57.9302 45.9204 57.9286 45.8451L57.9704 45.8652L58.0089 45.8401C58.2148 45.8568 58.4207 45.8853 58.6265 45.8886C59.758 45.907 60.8895 45.9405 62.0193 45.9255C62.7474 45.9154 63.4772 45.9841 64.2053 45.9305C64.4128 46.0477 64.6438 46.0896 64.925 45.9506C65.2296 45.7999 65.5627 46.2085 65.7903 45.8233C66.0364 46.1783 66.341 45.9891 66.6322 45.9154C67.2616 46.0209 67.983 45.768 68.5153 46.2051C69.9078 47.3472 71.0176 48.6919 71.2 50.5876C71.2318 50.9141 71.1213 51.2541 71.1398 51.5655C71.2151 52.8332 71.1398 54.1009 71.1783 55.3669C71.1983 56.0083 70.9205 56.7585 71.6268 57.2642C71.8779 57.4434 71.2887 57.5841 71.5582 57.8051L71.5615 57.8068ZM122.999 89.8069C118.565 89.8136 114.129 89.7902 109.697 89.8287C108.669 89.8387 107.729 89.7851 106.994 88.9696C106.845 89.0433 106.813 88.9294 106.771 88.8306C105.452 87.5211 105.252 85.8582 105.285 84.1216C105.305 83.075 105.414 82.02 105.328 80.9817C105.211 79.5482 105.367 78.1282 105.364 76.7031C105.36 75.2412 105.303 73.7775 105.454 72.319C104.945 71.6927 105.454 71.0312 105.409 70.3831C105.332 69.298 105.427 68.2028 105.437 67.1109C105.451 65.7612 105.528 64.4148 105.496 63.0634C105.486 62.6196 105.069 62.4204 105.036 62.1156C105.002 61.8158 105.553 61.645 105.548 61.2029C105.538 60.2852 105.571 59.3659 105.58 58.4482C105.608 55.7822 105.605 53.1146 105.675 50.4502C105.705 49.2914 106.067 48.2013 106.848 47.3003C107.001 47.1245 107.121 46.9369 107.243 46.7427C107.56 46.2386 107.966 45.892 108.616 45.9506C108.885 45.974 109.16 45.9623 109.431 45.9539C114.497 45.7781 119.564 45.8434 124.672 45.825C124.361 46.1951 124.016 46.4429 123.63 46.6489C121.926 47.5599 120.518 48.8309 119.154 50.1873C117.09 52.2387 115.78 54.7406 114.618 57.3496C114.335 57.9826 114.576 58.552 114.859 59.0762C115.154 59.6204 115.092 59.9486 114.497 60.1513C114.4 60.1847 114.313 60.245 114.22 60.2902C113.307 60.7357 112.978 61.6936 113.436 62.6062C113.58 62.8909 113.707 63.1371 113.251 63.2325C112.961 63.2928 112.861 63.4921 112.83 63.7734C112.611 65.8466 112.45 67.9164 112.695 70.0063C112.822 71.0948 112.747 72.2068 112.993 73.2852C113.572 75.834 114.22 78.3409 115.354 80.7339C116.305 82.7384 117.848 84.2673 119.084 86.0357C119.639 86.8311 120.48 87.429 121.183 88.1239C121.894 88.8273 122.793 89.2392 123.705 89.698C123.449 89.889 123.213 89.8086 122.997 89.8086L122.999 89.8069ZM129.393 88.7318C128.482 88.4471 127.498 88.4438 126.602 88.0921C124.438 87.2431 122.545 86.0725 121.209 84.058C120.227 82.576 119.385 81.0453 118.645 79.4327C118.382 78.8617 118.407 78.1449 117.863 77.7028C117.842 77.6861 117.833 77.6241 117.847 77.5957C118.111 77.0246 117.704 76.9375 117.256 76.8639C117.868 76.1069 117.293 75.4388 117.155 74.7672C116.663 72.3809 116.292 69.9946 116.513 67.5413C116.653 65.9722 116.705 64.3947 116.765 62.8206C116.784 62.3316 117.045 61.928 117.137 61.4625C117.391 60.1847 117.718 58.9204 118.068 57.6645C118.238 57.0482 118.769 56.5977 119.037 55.9832C123.077 66.9133 127.116 77.8452 131.172 88.8189C130.514 88.9277 129.962 88.9093 129.393 88.7301V88.7318ZM136.714 87.4407C136.53 87.4675 136.158 87.5546 136.011 87.1376C135.172 84.7814 134.213 82.4704 133.344 80.1277C132.854 78.8047 132.519 77.4198 131.97 76.1086C131.721 75.5141 131.513 74.8979 131.227 74.3218C130.502 72.8682 130.027 71.3209 129.446 69.8121C128.546 67.4777 127.669 65.1332 126.788 62.7921C126.56 62.1876 126.37 61.5697 126.142 60.9668C126.048 60.7156 126.073 60.3472 125.648 60.3455C125.61 60.3455 125.529 60.2551 125.538 60.23C125.724 59.669 125.39 59.2553 125.243 58.763C125.077 58.2137 124.885 57.6661 124.689 57.1269C123.985 55.1877 123.251 53.2602 122.515 51.3328C122.348 50.8923 122.167 50.4955 122.794 50.2677C122.962 50.2074 123.092 50.05 123.261 49.9211C123.713 51.1151 124.159 52.2756 124.592 53.4394C125.027 54.605 125.449 55.7772 125.878 56.9444C126.743 59.2989 127.597 61.6567 128.477 64.0045C129.409 66.4897 130.405 68.953 131.301 71.4515C131.93 73.2065 132.576 74.9531 133.227 76.6997C133.85 78.3693 134.474 80.0389 135.105 81.7068C135.743 83.3965 136.376 85.0895 137.042 86.7692C137.204 87.1778 136.903 87.4105 136.712 87.439L136.714 87.4407ZM135.42 77.8C135.388 77.7229 135.373 77.6409 135.35 77.5605C135.105 77.311 135.065 76.9811 134.993 76.6629C134.431 75.1424 133.91 73.6051 133.289 72.108C132.928 71.2338 132.645 70.3312 132.26 69.4621C131.88 68.6013 131.64 67.6719 131.292 66.7877C130.613 65.0662 130.022 63.3079 129.309 61.5998C128.852 60.5079 128.507 59.3776 128.055 58.2841C127.581 57.1403 127.15 55.9781 126.736 54.8093C126.107 53.0308 125.437 51.2691 124.691 49.5359C124.475 49.0335 124.764 48.5127 125.404 48.1929C126.878 47.456 128.423 46.9319 130.055 46.7042C130.554 46.6338 131.081 46.6238 131.577 46.7058C132.819 46.9118 134.084 47.0006 135.286 47.4209C136.357 47.796 137.291 48.3235 138.073 49.2027C138.669 49.8725 139.372 50.467 139.962 51.1486C140.627 51.9155 141.059 52.85 141.564 53.7275C142.311 55.0236 142.843 56.4135 143.31 57.8286C143.342 57.9274 143.359 58.0898 143.421 58.1099C144.135 58.3427 143.732 58.969 143.881 59.396C144.073 59.9419 144.246 60.4962 144.41 61.0522C144.468 61.2481 144.443 61.4708 144.512 61.6618C145.071 63.2225 145.024 64.8686 145.248 66.4779C145.401 67.5664 145.648 68.6465 145.533 69.7367C145.335 71.6089 145.288 73.4878 144.848 75.3517C144.276 77.7665 143.364 80.0272 142.267 82.2193C141.631 83.4936 140.853 84.7094 139.782 85.6957C139.599 85.8632 139.393 86.0323 139.281 86.2433C139.199 86.4007 139.157 86.5481 138.963 86.5649C138.687 86.59 138.69 86.3354 138.63 86.183C137.519 83.4032 136.578 80.558 135.415 77.7983L135.42 77.8ZM142.155 113.975V114.944C142.073 114.944 141.991 114.944 141.909 114.943C142.097 113.956 141.961 112.972 142.05 111.985C142.152 112.645 142.174 113.31 142.155 113.977V113.975ZM161.064 153.904C160.781 152.874 160.309 151.95 159.949 150.98C159.33 149.309 158.682 147.646 158.08 145.968C157.455 144.228 156.744 142.524 156.145 140.772C155.8 139.764 155.348 138.777 154.97 137.773C154.33 136.073 153.719 134.363 153.098 132.657C152.533 131.103 151.995 129.539 151.399 127.996C150.564 125.836 149.587 123.738 148.8 121.552C148.095 119.598 147.319 117.659 146.559 115.72C146.035 114.38 145.571 113.007 145.044 111.671C144.607 110.562 144.251 109.418 143.742 108.331C143.246 107.27 142.928 106.124 142.517 105.022C142.097 103.9 141.645 102.79 141.226 101.666C140.572 99.9048 139.932 98.1381 139.29 96.3714C138.724 94.8173 138.16 93.2633 137.597 91.7076C137.524 91.505 137.348 91.16 137.601 91.1231C137.967 91.0712 138.448 90.8686 138.747 91.309C138.873 91.4949 138.933 91.726 139.008 91.942C139.42 93.1209 140.227 94.1006 140.59 95.3247C141.096 97.0328 141.785 98.6857 142.411 100.357C143.509 103.289 144.624 106.215 145.72 109.147C146.599 111.496 147.451 113.856 148.328 116.205C149.299 118.803 150.293 121.393 151.262 123.991C152.198 126.499 153.103 129.018 154.049 131.523C154.923 133.839 155.872 136.127 156.719 138.451C158.08 142.184 159.628 145.844 160.886 149.614C161.019 150.009 161.121 150.423 161.317 150.786C161.887 151.848 161.809 152.856 161.067 153.903L161.064 153.904ZM175.012 88.5543C173.023 89.7533 170.921 89.9476 168.685 89.5875C166.46 89.2292 164.592 88.2713 163.173 86.5062C162.431 85.5819 161.842 84.5788 161.517 83.4099C161.079 81.8224 161.017 80.2081 160.975 78.5837C160.908 76.0299 160.845 73.4761 160.801 70.9223C160.764 68.8023 160.846 66.6789 160.721 64.5655C160.57 62.0553 160.732 59.5417 160.545 57.0348C160.507 56.5157 160.518 55.9915 160.523 55.4707C160.527 55.0521 160.577 54.6217 159.872 54.4609C160.286 54.2901 160.558 54.2382 160.54 53.8279C160.512 53.1665 159.889 53.6571 159.655 53.2686C160.955 53.1464 160.398 52.1851 160.471 51.4935C160.491 51.311 160.468 51.1167 160.428 50.9359C160.172 49.7821 160.801 48.9464 161.437 48.1158C161.589 47.9166 161.757 47.729 161.917 47.5364C162.363 47.0006 162.875 46.6958 163.63 46.6908C167.769 46.6606 171.908 46.5819 176.048 46.5132C177.12 46.4948 177.902 47.1781 178.314 48.2079C179.238 50.5172 179.208 52.932 179.238 55.3418C179.293 59.6857 179.28 64.033 179.37 68.3769C179.435 71.5805 179.414 74.784 179.479 77.9875C179.529 80.4391 179.117 82.7869 178.282 85.0711C177.691 86.6921 176.446 87.6919 175.015 88.5543H175.012ZM199.877 49.2563C199.474 50.0785 199.574 51.0615 199.178 51.9256C198.632 53.1146 198.135 54.332 197.726 55.5746C197.417 56.5174 197.023 57.4267 196.7 58.3628C196.25 59.6673 195.78 60.9651 195.296 62.2579C195.169 62.5995 195.34 62.9211 195.258 63.2593C195.08 63.2644 195.233 63.0266 195.067 63.0333C194.545 63.8304 194.396 64.8067 194.049 65.7076C193.529 67.0607 193.077 68.4439 192.486 69.7652C191.868 71.1467 191.505 72.612 190.948 74.012C190.124 76.0768 189.259 78.1349 188.636 80.2633C188.358 81.2095 187.808 82.0367 187.634 82.9812C187.411 84.1919 186.79 85.2503 186.443 86.4158C186.077 87.645 185.525 88.849 185.073 90.0715C184.986 90.3076 184.818 90.3712 184.584 90.3629C183.375 90.316 182.164 90.3327 180.957 90.3227C179.862 90.3143 178.759 90.2909 177.748 90.3679C179.867 88.6899 181.051 86.4242 181.434 83.7482C181.894 80.5379 181.829 77.2993 181.839 74.0656C181.842 72.9051 181.916 71.7345 181.891 70.5807C181.852 68.7504 181.872 66.9184 181.836 65.088C181.775 62.0017 181.784 58.9137 181.77 55.8257C181.77 55.5059 181.569 55.2195 181.752 54.8511C181.889 54.5731 181.441 54.7105 181.278 54.5011C181.809 54.193 181.697 53.694 181.71 53.1832C181.737 52.0646 181.451 50.899 181.936 49.8357C182.43 48.7539 182.808 47.58 183.836 46.8163C184.209 46.54 184.611 46.4211 185.059 46.4195C187.712 46.4044 190.367 46.3893 193.02 46.3793C193.418 46.3776 193.813 46.3006 194.218 46.3625C194.329 46.3793 194.714 46.5802 194.581 46.1046C194.54 45.9522 194.672 46.0996 194.692 46.113C194.777 46.1683 194.841 46.2654 194.931 46.3039C195.192 46.4178 195.502 46.324 195.612 46.1498C195.715 45.9891 195.422 45.8551 195.315 45.6994C195.382 45.7429 195.475 45.7714 195.509 45.8334C195.895 46.54 196.565 46.3625 197.174 46.3776C198.033 46.3977 198.89 46.4228 199.748 46.4329C199.988 46.4362 200.006 46.5853 200.033 46.7577C200.169 47.6017 200.292 48.4106 199.877 49.2579V49.2563ZM201.196 42.2363C201.223 42.2849 201.251 42.3317 201.283 42.3736C201.245 42.3384 201.215 42.2899 201.196 42.2363Z" fill="white"/>
</svg>
